<?xml version="1.0" encoding="UTF-8" standalone="no"?>
<!DOCTYPE svg PUBLIC "-//W3C//DTD SVG 1.1//EN" "http://www.w3.org/Graphics/SVG/1.1/DTD/svg11.dtd">
<svg width="100%" height="100%" viewBox="0 0 512 512" version="1.1" xmlns="http://www.w3.org/2000/svg" xmlns:xlink="http://www.w3.org/1999/xlink" xml:space="preserve" xmlns:serif="http://www.serif.com/" style="fill-rule:evenodd;clip-rule:evenodd;stroke-linecap:round;stroke-linejoin:round;stroke-miterlimit:10;">
    <g>
        <g transform="matrix(0.90129,0,0,1,25.2594,0)">
            <path d="M117.3,91.099L117.2,91L117.2,56C117.2,33 130.6,15.8 151.8,11.5C155.4,10.8 159.1,10.7 162.7,10.7C225,10.7 287.4,10.6 349.7,10.7C376.5,10.7 394.7,28.7 394.7,55.5L394.7,356.203L394.8,356.3L394.8,456.4C394.8,483.1 376.6,501.1 349.8,501.2L162.3,501.2C135.2,501.2 117.3,483.1 117.3,456L117.3,91.099Z" style="fill:none;fill-rule:nonzero;stroke:black;stroke-width:12px;"/>
        </g>
        <g transform="matrix(1,0,0,1,-1,0)">
            <path d="M256.1,426.8C268,426.9 277.2,436.2 277.2,448.2C277.1,460.1 267.7,469.3 255.8,469.3C243.9,469.2 234.7,459.9 234.7,447.9C234.8,435.9 244.2,426.7 256.1,426.8Z" style="fill:none;fill-rule:nonzero;stroke:black;stroke-width:10px;stroke-linecap:butt;stroke-linejoin:miter;"/>
        </g>
        <g transform="matrix(0.90129,0,0,1,25.2594,-3)">
            <path d="M286.7,58.1L225.2,58.1C222.4,58.1 220.1,55.8 220.1,53C220.1,50.2 222.4,47.9 225.2,47.9L286.7,47.9C289.5,47.9 291.8,50.2 291.8,53C291.8,55.8 289.5,58.1 286.7,58.1Z" style="fill-rule:nonzero;"/>
        </g>
        <g transform="matrix(7.74682,0,0,8.59526,8.60162,-32.0209)">
            <path d="M16.469,59.194L22.472,49.689L24.543,54.527L29.091,37.479L24.989,38.343L31.008,28.242L36.31,29.638L40.407,22.324L44.104,27.579L46.839,21.703" style="fill:none;stroke:black;stroke-width:1px;stroke-miterlimit:1.5;"/>
        </g>
        <g transform="matrix(9.01018,0,0,8.59526,-51.0254,-32.0209)">
            <path d="M29.674,61.972L29.575,55.175L38.617,44.438L35.197,43.574L36.395,39.665L44.132,37.788L42.751,48.139L47.197,39.648" style="fill:none;stroke:black;stroke-width:1px;stroke-miterlimit:1.5;"/>
        </g>
        <g transform="matrix(7.74682,0,0,8.59526,8.60162,-32.0209)">
            <path d="M15.421,11.864L19.898,12.083L18.95,20.171L26.793,13.148L30.327,16.896L37.056,11.9L43.701,15.792L47.339,14.535" style="fill:none;stroke:black;stroke-width:1px;stroke-miterlimit:1.5;"/>
        </g>
        <g transform="matrix(7.74682,0,0,8.59526,8.60162,-32.0209)">
            <path d="M16.352,33.683L21.61,25.87L21.329,33.981L29.232,24.797L34.743,19.417L35.997,21.567L38.26,17.379L48.258,18.752" style="fill:none;stroke:black;stroke-width:1px;stroke-miterlimit:1.5;"/>
        </g>
    </g>
</svg>
