<?xml version="1.0" encoding="UTF-8" standalone="no"?>
<!DOCTYPE svg PUBLIC "-//W3C//DTD SVG 1.1//EN" "http://www.w3.org/Graphics/SVG/1.1/DTD/svg11.dtd">
<svg width="100%" height="100%" viewBox="0 0 512 512" version="1.1" xmlns="http://www.w3.org/2000/svg" xmlns:xlink="http://www.w3.org/1999/xlink" xml:space="preserve" xmlns:serif="http://www.serif.com/" style="fill-rule:evenodd;clip-rule:evenodd;stroke-linecap:round;stroke-linejoin:round;stroke-miterlimit:10;">
    <g>
        <g transform="matrix(0.90129,0,0,1,25.2594,0)">
            <path d="M117.3,91.099L117.2,91L117.2,56C117.2,33 130.6,15.8 151.8,11.5C155.4,10.8 159.1,10.7 162.7,10.7C225,10.7 287.4,10.6 349.7,10.7C376.5,10.7 394.7,28.7 394.7,55.5L394.7,356.203L394.8,356.3L394.8,456.4C394.8,483.1 376.6,501.1 349.8,501.2L162.3,501.2C135.2,501.2 117.3,483.1 117.3,456L117.3,91.099Z" style="fill:none;fill-rule:nonzero;stroke:black;stroke-width:12px;"/>
        </g>
        <g transform="matrix(1,0,0,1,-1,0)">
            <path d="M256.1,426.8C268,426.9 277.2,436.2 277.2,448.2C277.1,460.1 267.7,469.3 255.8,469.3C243.9,469.2 234.7,459.9 234.7,447.9C234.8,435.9 244.2,426.7 256.1,426.8Z" style="fill:none;fill-rule:nonzero;stroke:black;stroke-width:10px;stroke-linecap:butt;stroke-linejoin:miter;"/>
        </g>
        <g transform="matrix(0.90129,0,0,1,25.2594,-3)">
            <path d="M286.7,58.1L225.2,58.1C222.4,58.1 220.1,55.8 220.1,53C220.1,50.2 222.4,47.9 225.2,47.9L286.7,47.9C289.5,47.9 291.8,50.2 291.8,53C291.8,55.8 289.5,58.1 286.7,58.1Z" style="fill-rule:nonzero;"/>
        </g>
        <g transform="matrix(0.113866,0,0,0.113866,152.843,143.034)">
            <path d="M1664,896C1664,1000 1643.67,1099.33 1603,1194C1562.33,1288.67 1507.67,1370.33 1439,1439C1370.33,1507.67 1288.67,1562.33 1194,1603C1099.33,1643.67 1000,1664 896,1664C792,1664 692.667,1643.67 598,1603C503.333,1562.33 421.667,1507.67 353,1439C284.333,1370.33 229.667,1288.67 189,1194C148.333,1099.33 128,1000 128,896C128,774.667 154.833,660.333 208.5,553C262.167,445.667 337.667,355.667 435,283C463.667,261.667 495.5,253.333 530.5,258C565.5,262.667 593.333,279.333 614,308C635.333,336 643.5,367.5 638.5,402.5C633.5,437.5 617,465.667 589,487C523.667,536.333 473.167,596.667 437.5,668C401.833,739.333 384,815.333 384,896C384,965.333 397.5,1031.5 424.5,1094.5C451.5,1157.5 488,1212 534,1258C580,1304 634.5,1340.5 697.5,1367.5C760.5,1394.5 826.667,1408 896,1408C965.333,1408 1031.5,1394.5 1094.5,1367.5C1157.5,1340.5 1212,1304 1258,1258C1304,1212 1340.5,1157.5 1367.5,1094.5C1394.5,1031.5 1408,965.333 1408,896C1408,815.333 1390.17,739.333 1354.5,668C1318.83,596.667 1268.33,536.333 1203,487C1175,465.667 1158.5,437.5 1153.5,402.5C1148.5,367.5 1156.67,336 1178,308C1198.67,279.333 1226.67,262.667 1262,258C1297.33,253.333 1329,261.667 1357,283C1454.33,355.667 1529.83,445.667 1583.5,553C1637.17,660.333 1664,774.667 1664,896ZM1024,128L1024,768C1024,802.667 1011.33,832.667 986,858C960.667,883.333 930.667,896 896,896C861.333,896 831.333,883.333 806,858C780.667,832.667 768,802.667 768,768L768,128C768,93.333 780.667,63.333 806,38C831.333,12.667 861.333,0 896,0C930.667,0 960.667,12.667 986,38C1011.33,63.333 1024,93.333 1024,128Z" style="fill-rule:nonzero;"/>
        </g>
    </g>
</svg>
