<?xml version="1.0" encoding="UTF-8" standalone="no"?>
<!DOCTYPE svg PUBLIC "-//W3C//DTD SVG 1.1//EN" "http://www.w3.org/Graphics/SVG/1.1/DTD/svg11.dtd">
<svg width="100%" height="100%" viewBox="0 0 512 512" version="1.1" xmlns="http://www.w3.org/2000/svg" xmlns:xlink="http://www.w3.org/1999/xlink" xml:space="preserve" xmlns:serif="http://www.serif.com/" style="fill-rule:evenodd;clip-rule:evenodd;stroke-linecap:round;stroke-linejoin:round;stroke-miterlimit:10;">
    <g>
        <g transform="matrix(0.90129,0,0,1,25.2594,0)">
            <path d="M117.3,91.099L117.2,91L117.2,56C117.2,33 130.6,15.8 151.8,11.5C155.4,10.8 159.1,10.7 162.7,10.7C225,10.7 287.4,10.6 349.7,10.7C376.5,10.7 394.7,28.7 394.7,55.5L394.7,356.203L394.8,356.3L394.8,456.4C394.8,483.1 376.6,501.1 349.8,501.2L162.3,501.2C135.2,501.2 117.3,483.1 117.3,456L117.3,91.099Z" style="fill:none;fill-rule:nonzero;stroke:black;stroke-width:12px;"/>
        </g>
        <g transform="matrix(1,0,0,1,-1,0)">
            <path d="M256.1,426.8C268,426.9 277.2,436.2 277.2,448.2C277.1,460.1 267.7,469.3 255.8,469.3C243.9,469.2 234.7,459.9 234.7,447.9C234.8,435.9 244.2,426.7 256.1,426.8Z" style="fill:none;fill-rule:nonzero;stroke:black;stroke-width:10px;stroke-linecap:butt;stroke-linejoin:miter;"/>
        </g>
        <g transform="matrix(0.90129,0,0,1,25.2594,-3)">
            <path d="M286.7,58.1L225.2,58.1C222.4,58.1 220.1,55.8 220.1,53C220.1,50.2 222.4,47.9 225.2,47.9L286.7,47.9C289.5,47.9 291.8,50.2 291.8,53C291.8,55.8 289.5,58.1 286.7,58.1Z" style="fill-rule:nonzero;"/>
        </g>
        <g transform="matrix(0.181688,0,0,0.181688,209.768,129.908)">
            <g>
                <g transform="matrix(2.57121,0,0,2.57121,-404.434,-91.6927)">
                    <path d="M179,352L103.35,352C76.363,351.973 54.163,329.777 54.13,302.79L54.13,201.21C54.163,174.223 76.363,152.027 103.35,152L179,152C187.229,152 194,158.771 194,167L194,337C194,345.229 187.229,352 179,352ZM103.35,182C92.814,182.011 84.146,190.674 84.13,201.21L84.13,302.79C84.146,313.326 92.814,321.989 103.35,322L164,322L164,182L103.35,182Z" style="fill-rule:nonzero;"/>
                </g>
                <g transform="matrix(2.57121,0,0,2.57121,-404.434,-91.6927)">
                    <path d="M295,416.92L245.62,416.92C200.863,416.871 164.049,380.057 164,335.3L164,168.7C164.049,123.943 200.863,87.129 245.62,87.08L295,87.08C303.229,87.08 310,93.851 310,102.08L310,401.92C310,410.149 303.229,416.92 295,416.92ZM245.62,117.08C217.315,117.113 194.033,140.395 194,168.7L194,335.3C194.033,363.605 217.315,386.887 245.62,386.92L280,386.92L280,117.08L245.62,117.08Z" style="fill-rule:nonzero;"/>
                </g>
                <g transform="matrix(2.57121,0,0,2.57121,-404.434,-91.6927)">
                    <path d="M356.35,309.39C348.122,309.388 341.353,302.618 341.353,294.39C341.353,290.412 342.936,286.592 345.75,283.78L430.53,199C433.342,196.189 437.159,194.609 441.135,194.609C449.364,194.609 456.136,201.381 456.136,209.61C456.136,213.588 454.554,217.408 451.74,220.22L367,305C364.177,307.821 360.341,309.402 356.35,309.39Z" style="fill-rule:nonzero;"/>
                </g>
                <g transform="matrix(2.57121,0,0,2.57121,-404.434,-91.6927)">
                    <path d="M441.13,309.39C437.155,309.397 433.337,307.816 430.53,305L345.75,220.22C342.94,217.406 341.36,213.587 341.36,209.61C341.36,201.373 348.138,194.595 356.375,194.595C360.359,194.595 364.185,196.181 367,199L451.78,283.78C454.594,286.592 456.177,290.412 456.177,294.39C456.177,302.619 449.406,309.39 441.177,309.39L441.13,309.39Z" style="fill-rule:nonzero;"/>
                </g>
            </g>
        </g>
    </g>
</svg>
