<?xml version="1.0" encoding="UTF-8" standalone="no"?>
<!DOCTYPE svg PUBLIC "-//W3C//DTD SVG 1.1//EN" "http://www.w3.org/Graphics/SVG/1.1/DTD/svg11.dtd">
<svg width="100%" height="100%" viewBox="0 0 512 512" version="1.1" xmlns="http://www.w3.org/2000/svg" xmlns:xlink="http://www.w3.org/1999/xlink" xml:space="preserve" xmlns:serif="http://www.serif.com/" style="fill-rule:evenodd;clip-rule:evenodd;stroke-linecap:round;stroke-linejoin:round;stroke-miterlimit:10;">
    <g>
        <g transform="matrix(0.90129,0,0,1,25.2594,0)">
            <path d="M117.3,91.099L117.2,91L117.2,56C117.2,33 130.6,15.8 151.8,11.5C155.4,10.8 159.1,10.7 162.7,10.7C225,10.7 287.4,10.6 349.7,10.7C376.5,10.7 394.7,28.7 394.7,55.5L394.7,356.203L394.8,356.3L394.8,456.4C394.8,483.1 376.6,501.1 349.8,501.2L162.3,501.2C135.2,501.2 117.3,483.1 117.3,456L117.3,91.099Z" style="fill:none;fill-rule:nonzero;stroke:black;stroke-width:12px;"/>
        </g>
        <g transform="matrix(1,0,0,1,-1,0)">
            <path d="M256.1,426.8C268,426.9 277.2,436.2 277.2,448.2C277.1,460.1 267.7,469.3 255.8,469.3C243.9,469.2 234.7,459.9 234.7,447.9C234.8,435.9 244.2,426.7 256.1,426.8Z" style="fill:none;fill-rule:nonzero;stroke:black;stroke-width:10px;stroke-linecap:butt;stroke-linejoin:miter;"/>
        </g>
        <g transform="matrix(0.90129,0,0,1,25.2594,-3)">
            <path d="M286.7,58.1L225.2,58.1C222.4,58.1 220.1,55.8 220.1,53C220.1,50.2 222.4,47.9 225.2,47.9L286.7,47.9C289.5,47.9 291.8,50.2 291.8,53C291.8,55.8 289.5,58.1 286.7,58.1Z" style="fill-rule:nonzero;"/>
        </g>
        <g transform="matrix(8.70396,0,0,8.70396,5728.82,-8770.67)">
            <g id="layer1">
                <g id="g4715">
                    <path id="path4717" d="M-628.994,1021.59C-628.682,1021.86 -628.234,1022.05 -628.006,1022.36C-628.086,1022.66 -627.844,1023.27 -628.129,1023.36C-628.688,1023.19 -628.445,1023.82 -628.494,1024.16C-628.555,1024.58 -627.757,1024.14 -628.006,1024.75C-627.917,1025.22 -628.041,1025.49 -628.561,1025.36L-629.983,1025.36C-629.931,1025.06 -630.079,1024.56 -629.921,1024.36C-629.354,1024.54 -629.503,1024 -629.494,1023.62C-629.343,1023.1 -630.241,1023.62 -629.983,1022.99C-629.987,1022.62 -630.081,1022.19 -629.632,1022.05C-629.419,1021.9 -629.207,1021.74 -628.994,1021.59L-628.994,1021.59ZM-629.983,1026.36L-628.006,1026.36L-628.006,1029.37L-629.983,1029.37L-629.983,1026.36ZM-629.983,1030.37L-628.006,1030.37C-628.086,1030.67 -627.844,1031.28 -628.129,1031.37L-629.983,1031.37L-629.983,1030.37ZM-632.994,1032.37L-624.994,1032.37L-624.994,1034.37L-632.994,1034.37L-632.994,1032.37ZM-632.994,1035.37L-624.994,1035.37C-625.007,1037.69 -624.968,1040 -625.015,1042.31C-625.119,1044.52 -627.117,1046.62 -629.401,1046.34C-631.688,1046.1 -633.165,1043.71 -632.994,1041.54L-632.994,1035.37L-632.994,1035.37ZM-627.994,1047.25L-627.994,1051.36L-629.994,1051.36L-629.994,1047.25C-629.333,1047.39 -628.655,1047.39 -627.994,1047.25L-627.994,1047.25Z" style="fill-rule:nonzero;"/>
                </g>
            </g>
        </g>
    </g>
</svg>
