<?xml version="1.0" encoding="UTF-8" standalone="no"?>
<!DOCTYPE svg PUBLIC "-//W3C//DTD SVG 1.1//EN" "http://www.w3.org/Graphics/SVG/1.1/DTD/svg11.dtd">
<svg width="100%" height="100%" viewBox="0 0 512 512" version="1.1" xmlns="http://www.w3.org/2000/svg" xmlns:xlink="http://www.w3.org/1999/xlink" xml:space="preserve" xmlns:serif="http://www.serif.com/" style="fill-rule:evenodd;clip-rule:evenodd;stroke-linecap:round;stroke-linejoin:round;stroke-miterlimit:10;">
    <g>
        <g transform="matrix(0.90129,0,0,1,25.2594,0)">
            <path d="M117.3,91.099L117.2,91L117.2,56C117.2,33 130.6,15.8 151.8,11.5C155.4,10.8 159.1,10.7 162.7,10.7C225,10.7 287.4,10.6 349.7,10.7C376.5,10.7 394.7,28.7 394.7,55.5L394.7,356.203L394.8,356.3L394.8,456.4C394.8,483.1 376.6,501.1 349.8,501.2L162.3,501.2C135.2,501.2 117.3,483.1 117.3,456L117.3,91.099Z" style="fill:none;fill-rule:nonzero;stroke:black;stroke-width:12px;"/>
        </g>
        <g transform="matrix(1,0,0,1,-1,0)">
            <path d="M256.1,426.8C268,426.9 277.2,436.2 277.2,448.2C277.1,460.1 267.7,469.3 255.8,469.3C243.9,469.2 234.7,459.9 234.7,447.9C234.8,435.9 244.2,426.7 256.1,426.8Z" style="fill:none;fill-rule:nonzero;stroke:black;stroke-width:10px;stroke-linecap:butt;stroke-linejoin:miter;"/>
        </g>
        <g transform="matrix(0.90129,0,0,1,25.2594,-3)">
            <path d="M286.7,58.1L225.2,58.1C222.4,58.1 220.1,55.8 220.1,53C220.1,50.2 222.4,47.9 225.2,47.9L286.7,47.9C289.5,47.9 291.8,50.2 291.8,53C291.8,55.8 289.5,58.1 286.7,58.1Z" style="fill-rule:nonzero;"/>
        </g>
        <g transform="matrix(0.408231,0,0,0.408231,151.5,134.606)">
            <path id="XMLID_5_" d="M218.2,172.4L218.2,334.2L419.7,453.7C436.3,463.6 457.4,451.6 457.4,432.2L457.4,74.3C457.4,55 436.4,43 419.7,52.8L218.2,172.4Z" style="fill-rule:nonzero;"/>
            <path id="XMLID_4_" d="M61.3,173.3C38.2,173.3 19.4,192.1 19.4,215.2L19.4,291.3C19.4,314.4 38.2,333.2 61.3,333.2L203.5,333.2L203.5,173.2L61.3,173.2L61.3,173.3Z" style="fill-rule:nonzero;"/>
            <path id="XMLID_3_" d="M467.9,184.1L467.9,322.6C490.8,308 506,282.5 506,253.4C506,224.3 490.8,198.6 467.9,184.1Z" style="fill-rule:nonzero;"/>
            <path id="XMLID_2_" d="M10.3,214.2C7.9,214.2 6,216.1 6,218.5L6,292.4L39.5,292.4L39.5,214.2L10.3,214.2Z" style="fill-rule:nonzero;"/>
            <path id="XMLID_1_" d="M156.9,318C156.9,318 130.6,376.8 188.6,446.4C194,452.8 189.3,462.6 180.9,462.6L118.8,462.6C114.1,462.6 109.9,460.1 107.6,456C96.2,435.2 65,368.8 94.1,308.5" style="fill-rule:nonzero;"/>
        </g>
    </g>
</svg>
