<?xml version="1.0" encoding="UTF-8" standalone="no"?>
<!DOCTYPE svg PUBLIC "-//W3C//DTD SVG 1.1//EN" "http://www.w3.org/Graphics/SVG/1.1/DTD/svg11.dtd">
<svg width="100%" height="100%" viewBox="0 0 512 512" version="1.1" xmlns="http://www.w3.org/2000/svg" xmlns:xlink="http://www.w3.org/1999/xlink" xml:space="preserve" xmlns:serif="http://www.serif.com/" style="fill-rule:evenodd;clip-rule:evenodd;stroke-linecap:round;stroke-linejoin:round;stroke-miterlimit:10;">
    <g>
        <g transform="matrix(0.90129,0,0,1,25.2594,0)">
            <path d="M117.3,91.099L117.2,91L117.2,56C117.2,33 130.6,15.8 151.8,11.5C155.4,10.8 159.1,10.7 162.7,10.7C225,10.7 287.4,10.6 349.7,10.7C376.5,10.7 394.7,28.7 394.7,55.5L394.7,356.203L394.8,356.3L394.8,456.4C394.8,483.1 376.6,501.1 349.8,501.2L162.3,501.2C135.2,501.2 117.3,483.1 117.3,456L117.3,91.099Z" style="fill:none;fill-rule:nonzero;stroke:black;stroke-width:12px;"/>
        </g>
        <g transform="matrix(1,0,0,1,-1,0)">
            <path d="M256.1,426.8C268,426.9 277.2,436.2 277.2,448.2C277.1,460.1 267.7,469.3 255.8,469.3C243.9,469.2 234.7,459.9 234.7,447.9C234.8,435.9 244.2,426.7 256.1,426.8Z" style="fill:none;fill-rule:nonzero;stroke:black;stroke-width:10px;stroke-linecap:butt;stroke-linejoin:miter;"/>
        </g>
        <g transform="matrix(0.90129,0,0,1,25.2594,-3)">
            <path d="M286.7,58.1L225.2,58.1C222.4,58.1 220.1,55.8 220.1,53C220.1,50.2 222.4,47.9 225.2,47.9L286.7,47.9C289.5,47.9 291.8,50.2 291.8,53C291.8,55.8 289.5,58.1 286.7,58.1Z" style="fill-rule:nonzero;"/>
        </g>
        <g id="Layer_2" transform="matrix(6.87502,0,0,6.87502,145.417,140.349)">
            <path d="M13.66,10.08L2.22,24.38C1.903,24.775 1.934,25.351 2.29,25.71L6.29,29.71C6.479,29.897 6.734,30.002 7,30C7.226,29.999 7.444,29.921 7.62,29.78L21.92,18.34L13.66,10.08ZM14.66,18.71C14.472,18.899 14.217,19.006 13.95,19.006C13.683,19.006 13.428,18.899 13.24,18.71C13.051,18.522 12.944,18.267 12.944,18C12.944,17.733 13.051,17.478 13.24,17.29L15.24,15.29C15.428,15.102 15.684,14.996 15.95,14.996C16.501,14.996 16.954,15.449 16.954,16C16.954,16.266 16.848,16.522 16.66,16.71L14.66,18.71Z" style="fill-rule:nonzero;"/>
            <path d="M28.31,14.9C29.368,13.508 29.941,11.807 29.941,10.059C29.941,5.671 26.329,2.059 21.941,2.059C20.193,2.059 18.492,2.632 17.1,3.69L28.31,14.9Z" style="fill-rule:nonzero;"/>
            <path d="M26.9,16.31C26.072,16.949 25.128,17.421 24.12,17.7L14.3,7.88C14.579,6.872 15.051,5.928 15.69,5.1L26.9,16.31Z" style="fill-rule:nonzero;"/>
        </g>
    </g>
</svg>
