<?xml version="1.0" encoding="UTF-8" standalone="no"?>
<!DOCTYPE svg PUBLIC "-//W3C//DTD SVG 1.1//EN" "http://www.w3.org/Graphics/SVG/1.1/DTD/svg11.dtd">
<svg width="100%" height="100%" viewBox="0 0 512 512" version="1.1" xmlns="http://www.w3.org/2000/svg" xmlns:xlink="http://www.w3.org/1999/xlink" xml:space="preserve" xmlns:serif="http://www.serif.com/" style="fill-rule:evenodd;clip-rule:evenodd;stroke-linecap:round;stroke-linejoin:round;stroke-miterlimit:10;">
    <g>
        <g transform="matrix(0.90129,0,0,1,25.2594,0)">
            <path d="M117.3,91.099L117.2,91L117.2,56C117.2,33 130.6,15.8 151.8,11.5C155.4,10.8 159.1,10.7 162.7,10.7C225,10.7 287.4,10.6 349.7,10.7C376.5,10.7 394.7,28.7 394.7,55.5L394.7,356.203L394.8,356.3L394.8,456.4C394.8,483.1 376.6,501.1 349.8,501.2L162.3,501.2C135.2,501.2 117.3,483.1 117.3,456L117.3,91.099Z" style="fill:none;fill-rule:nonzero;stroke:black;stroke-width:12px;"/>
        </g>
        <g transform="matrix(1,0,0,1,-1,0)">
            <path d="M256.1,426.8C268,426.9 277.2,436.2 277.2,448.2C277.1,460.1 267.7,469.3 255.8,469.3C243.9,469.2 234.7,459.9 234.7,447.9C234.8,435.9 244.2,426.7 256.1,426.8Z" style="fill:none;fill-rule:nonzero;stroke:black;stroke-width:10px;stroke-linecap:butt;stroke-linejoin:miter;"/>
        </g>
        <g transform="matrix(0.90129,0,0,1,25.2594,-3)">
            <path d="M286.7,58.1L225.2,58.1C222.4,58.1 220.1,55.8 220.1,53C220.1,50.2 222.4,47.9 225.2,47.9L286.7,47.9C289.5,47.9 291.8,50.2 291.8,53C291.8,55.8 289.5,58.1 286.7,58.1Z" style="fill-rule:nonzero;"/>
        </g>
        <g id="Layer_2" transform="matrix(6.87502,0,0,6.87502,145.417,140.349)">
            <g transform="matrix(0.828758,0,0,0.828758,-3.67141,-4.19011)">
                <path d="M35.62,8.94C35.46,8.94 35.31,8.9 35.16,8.83C31.33,6.85 28,6 24.02,6C20.05,6 16.31,6.95 12.88,8.82C12.39,9.08 11.79,8.91 11.52,8.42C11.26,7.93 11.43,7.33 11.92,7.06C15.65,5.03 19.72,4 24.02,4C28.28,4 32,4.94 36.08,7.05C36.57,7.3 36.76,7.91 36.51,8.4C36.33,8.74 35.98,8.94 35.62,8.94ZM7,19.44C6.8,19.44 6.6,19.38 6.42,19.26C5.97,18.94 5.86,18.32 6.18,17.87C8.16,15.07 10.69,12.87 13.69,11.32C19.98,8.07 28.02,8.06 34.32,11.3C37.31,12.84 39.83,15.02 41.82,17.8C42.14,18.25 42.04,18.87 41.59,19.19C41.14,19.51 40.51,19.41 40.19,18.96C38.39,16.44 36.11,14.46 33.41,13.08C27.67,10.13 20.34,10.14 14.61,13.1C11.9,14.5 9.61,16.49 7.82,19.03C7.62,19.3 7.31,19.44 7,19.44ZM19.51,43.57C19.25,43.57 19,43.47 18.8,43.27C17.07,41.52 16.13,40.41 14.78,38C13.4,35.54 12.67,32.53 12.67,29.31C12.67,23.37 17.75,18.53 24,18.53C30.25,18.53 35.33,23.36 35.33,29.31C35.33,29.86 34.88,30.31 34.33,30.31C33.78,30.31 33.33,29.86 33.33,29.31C33.33,24.47 29.15,20.53 24,20.53C18.86,20.53 14.67,24.47 14.67,29.31C14.67,32.19 15.31,34.85 16.52,37.02C17.81,39.32 18.67,40.31 20.21,41.86C20.6,42.25 20.6,42.89 20.2,43.27C20.02,43.48 19.76,43.57 19.51,43.57ZM33.84,39.87C31.46,39.87 29.37,39.27 27.64,38.1C24.67,36.08 22.89,32.8 22.89,29.32C22.89,28.77 23.34,28.32 23.89,28.32C24.44,28.32 24.89,28.77 24.89,29.32C24.89,32.13 26.34,34.79 28.77,36.44C30.18,37.4 31.84,37.87 33.84,37.87C34.32,37.87 35.13,37.82 35.93,37.68C36.47,37.58 36.99,37.95 37.09,38.49C37.19,39.03 36.82,39.55 36.28,39.65C35.11,39.86 34.12,39.87 33.84,39.87ZM29.81,44C29.72,44 29.63,43.99 29.55,43.96C26.36,43.09 24.28,41.91 22.12,39.76C19.33,36.98 17.79,33.27 17.79,29.32C17.79,26.07 20.55,23.43 23.95,23.43C27.35,23.43 30.11,26.07 30.11,29.32C30.11,31.46 31.98,33.21 34.27,33.21C36.56,33.21 38.43,31.47 38.43,29.32C38.43,21.78 31.93,15.65 23.94,15.65C18.25,15.65 13.06,18.81 10.72,23.71C9.94,25.33 9.55,27.22 9.55,29.32C9.55,30.88 9.69,33.34 10.88,36.53C11.07,37.05 10.81,37.62 10.29,37.82C9.77,38.01 9.2,37.75 9,37.23C8.02,34.6 7.54,32.02 7.54,29.32C7.54,26.92 8,24.74 8.91,22.85C11.58,17.27 17.48,13.66 23.93,13.66C33.02,13.66 40.42,20.69 40.42,29.33C40.42,32.58 37.65,35.22 34.26,35.22C30.87,35.22 28.1,32.58 28.1,29.33C28.1,27.19 26.23,25.44 23.94,25.44C21.65,25.44 19.78,27.18 19.78,29.33C19.78,32.74 21.11,35.95 23.52,38.35C25.41,40.23 27.25,41.27 30.07,42.04C30.6,42.19 30.92,42.74 30.77,43.27C30.65,43.71 30.25,44 29.81,44Z" style="fill-rule:nonzero;"/>
            </g>
            <g transform="matrix(0.828758,0,0,0.828758,-21.1515,-20.4143)">
                <rect x="0" y="0" width="48" height="48" style="fill:none;fill-rule:nonzero;"/>
            </g>
        </g>
    </g>
</svg>
