<?xml version="1.0" encoding="UTF-8" standalone="no"?>
<!DOCTYPE svg PUBLIC "-//W3C//DTD SVG 1.1//EN" "http://www.w3.org/Graphics/SVG/1.1/DTD/svg11.dtd">
<svg width="100%" height="100%" viewBox="0 0 512 512" version="1.1" xmlns="http://www.w3.org/2000/svg" xmlns:xlink="http://www.w3.org/1999/xlink" xml:space="preserve" xmlns:serif="http://www.serif.com/" style="fill-rule:evenodd;clip-rule:evenodd;stroke-linecap:round;stroke-linejoin:round;stroke-miterlimit:10;">
    <g>
        <g transform="matrix(0.90129,0,0,1,25.2594,0)">
            <path d="M117.3,91.099L117.2,91L117.2,56C117.2,33 130.6,15.8 151.8,11.5C155.4,10.8 159.1,10.7 162.7,10.7C225,10.7 287.4,10.6 349.7,10.7C376.5,10.7 394.7,28.7 394.7,55.5L394.7,356.203L394.8,356.3L394.8,456.4C394.8,483.1 376.6,501.1 349.8,501.2L162.3,501.2C135.2,501.2 117.3,483.1 117.3,456L117.3,91.099Z" style="fill:none;fill-rule:nonzero;stroke:black;stroke-width:12px;"/>
        </g>
        <g transform="matrix(1,0,0,1,-1,0)">
            <path d="M256.1,426.8C268,426.9 277.2,436.2 277.2,448.2C277.1,460.1 267.7,469.3 255.8,469.3C243.9,469.2 234.7,459.9 234.7,447.9C234.8,435.9 244.2,426.7 256.1,426.8Z" style="fill:none;fill-rule:nonzero;stroke:black;stroke-width:10px;stroke-linecap:butt;stroke-linejoin:miter;"/>
        </g>
        <g transform="matrix(0.90129,0,0,1,25.2594,-3)">
            <path d="M286.7,58.1L225.2,58.1C222.4,58.1 220.1,55.8 220.1,53C220.1,50.2 222.4,47.9 225.2,47.9L286.7,47.9C289.5,47.9 291.8,50.2 291.8,53C291.8,55.8 289.5,58.1 286.7,58.1Z" style="fill-rule:nonzero;"/>
        </g>
        <g id="Layer_2">
        </g>
        <g transform="matrix(2.23086,0,0,2.23086,119.295,22.068)">
            <g>
                <g>
                    <g>
                        <path d="M69.495,46.451C68.202,46.451 66.983,46.763 65.895,47.3C64.77,44.141 61.754,41.87 58.211,41.87C56.023,41.87 54.039,42.741 52.574,44.147C51.109,42.741 49.121,41.87 46.931,41.87C45.824,41.87 44.769,42.095 43.804,42.495L43.804,28.093C43.804,23.597 40.146,19.939 35.65,19.939C31.154,19.939 27.498,23.597 27.498,28.093L27.498,51.408C23.826,51.597 18.385,52.801 18.385,60.496C18.385,66.24 25.26,78.787 32.266,80.385C36.827,86.674 44.229,90.776 52.571,90.776C66.637,90.776 77.655,80.206 77.655,66.712C77.655,65.325 76.53,64.2 75.141,64.2C73.754,64.2 72.629,65.325 72.629,66.712C72.629,77.388 63.818,85.751 52.57,85.751C45.619,85.751 39.486,82.19 35.888,76.8C35.847,76.73 35.81,76.657 35.761,76.591C33.72,73.452 32.523,69.716 32.523,65.7L32.523,28.092C32.523,26.367 33.925,24.963 35.65,24.963C37.377,24.963 38.779,26.367 38.779,28.092L38.779,58.793C38.779,60.18 39.904,61.305 41.293,61.305C42.68,61.305 43.805,60.18 43.805,58.793L43.805,50.022C43.805,48.297 45.207,46.895 46.932,46.895C48.653,46.895 50.051,48.286 50.065,49.999C50.065,50.007 50.063,50.015 50.063,50.022L50.063,58.793C50.063,58.926 50.077,59.018 50.096,59.09C50.244,60.336 51.293,61.305 52.578,61.305C53.877,61.305 54.935,60.315 55.064,59.047C55.074,59 55.078,58.942 55.082,58.875C55.082,58.848 55.09,58.82 55.09,58.793L55.09,49.999C55.102,48.286 56.496,46.895 58.211,46.895C59.94,46.895 61.346,48.297 61.346,50.022L61.346,54.538C61.346,54.561 61.344,54.583 61.344,54.606L61.344,58.794C61.344,58.939 61.358,59.048 61.381,59.142C61.553,60.363 62.59,61.306 63.86,61.306C65.149,61.306 66.198,60.333 66.342,59.083C66.354,59.02 66.362,58.95 66.363,58.87C66.365,58.845 66.371,58.819 66.371,58.794L66.371,54.571C66.391,52.862 67.783,51.475 69.494,51.475C71.223,51.475 72.629,52.879 72.629,54.606L72.629,56.688C72.629,58.077 73.754,59.202 75.141,59.202C76.53,59.202 77.655,58.077 77.655,56.688L77.655,54.606C77.655,50.108 73.995,46.451 69.495,46.451ZM23.411,60.495C23.411,57.952 23.821,56.724 27.499,56.452L27.499,65.698C27.499,67.477 27.688,69.214 28.042,70.889C25.558,67.571 23.411,63.229 23.411,60.495Z" style="fill-rule:nonzero;"/>
                        <path d="M45.091,34.222C44.136,35.229 44.179,36.819 45.187,37.772C45.671,38.233 46.294,38.461 46.914,38.461C47.58,38.461 48.244,38.197 48.738,37.676C51.572,34.684 53.267,30.772 53.513,26.663C53.802,21.974 52.247,17.456 49.138,13.938C46.027,10.42 41.73,8.325 37.04,8.038C27.374,7.452 19.011,14.839 18.421,24.515C18.134,29.203 19.691,33.723 22.802,37.239C23.722,38.278 25.31,38.376 26.349,37.456C27.388,36.536 27.486,34.948 26.566,33.91C24.343,31.398 23.232,28.169 23.437,24.82C23.859,17.91 29.826,12.634 36.736,13.054C40.084,13.259 43.152,14.755 45.375,17.267C47.596,19.779 48.705,23.005 48.5,26.359C48.323,29.294 47.112,32.087 45.091,34.222Z" style="fill-rule:nonzero;"/>
                        <path d="M54.681,38.311C55.904,38.959 57.427,38.493 58.077,37.266C59.741,34.124 60.698,30.71 60.923,27.112C61.761,13.352 51.251,1.473 37.493,0.633C30.823,0.227 24.403,2.438 19.403,6.863C14.403,11.287 11.424,17.394 11.018,24.058C10.471,33.009 14.797,41.618 22.311,46.53C22.735,46.806 23.211,46.939 23.684,46.939C24.502,46.939 25.307,46.54 25.789,45.801C26.547,44.64 26.221,43.081 25.06,42.323C19.054,38.397 15.595,31.517 16.033,24.365C16.357,19.041 18.736,14.162 22.732,10.627C26.728,7.09 31.865,5.328 37.185,5.648C48.179,6.32 56.576,15.81 55.906,26.8C55.726,29.677 54.963,32.405 53.635,34.913C52.987,36.141 53.454,37.661 54.681,38.311Z" style="fill-rule:nonzero;"/>
                    </g>
                </g>
            </g>
        </g>
    </g>
</svg>
