<?xml version="1.0" encoding="UTF-8" standalone="no"?>
<!DOCTYPE svg PUBLIC "-//W3C//DTD SVG 1.1//EN" "http://www.w3.org/Graphics/SVG/1.1/DTD/svg11.dtd">
<svg width="100%" height="100%" viewBox="0 0 512 512" version="1.1" xmlns="http://www.w3.org/2000/svg" xmlns:xlink="http://www.w3.org/1999/xlink" xml:space="preserve" xmlns:serif="http://www.serif.com/" style="fill-rule:evenodd;clip-rule:evenodd;stroke-linecap:round;stroke-linejoin:round;stroke-miterlimit:10;">
    <g>
        <g transform="matrix(0.90129,0,0,1,25.2594,0)">
            <path d="M117.3,91.099L117.2,91L117.2,56C117.2,33 130.6,15.8 151.8,11.5C155.4,10.8 159.1,10.7 162.7,10.7C225,10.7 287.4,10.6 349.7,10.7C376.5,10.7 394.7,28.7 394.7,55.5L394.7,356.203L394.8,356.3L394.8,456.4C394.8,483.1 376.6,501.1 349.8,501.2L162.3,501.2C135.2,501.2 117.3,483.1 117.3,456L117.3,91.099Z" style="fill:none;fill-rule:nonzero;stroke:black;stroke-width:12px;"/>
        </g>
        <g transform="matrix(1,0,0,1,-1,0)">
            <path d="M256.1,426.8C268,426.9 277.2,436.2 277.2,448.2C277.1,460.1 267.7,469.3 255.8,469.3C243.9,469.2 234.7,459.9 234.7,447.9C234.8,435.9 244.2,426.7 256.1,426.8Z" style="fill:none;fill-rule:nonzero;stroke:black;stroke-width:10px;stroke-linecap:butt;stroke-linejoin:miter;"/>
        </g>
        <g transform="matrix(0.90129,0,0,1,25.2594,-3)">
            <path d="M286.7,58.1L225.2,58.1C222.4,58.1 220.1,55.8 220.1,53C220.1,50.2 222.4,47.9 225.2,47.9L286.7,47.9C289.5,47.9 291.8,50.2 291.8,53C291.8,55.8 289.5,58.1 286.7,58.1Z" style="fill-rule:nonzero;"/>
        </g>
        <g id="Layer_2">
        </g>
        <g transform="matrix(0.139244,0,0,0.139244,129.8,118.864)">
            <path d="M969,1053L1117,1201L968,1350L969,1053ZM968,442L1117,591L969,739L968,442ZM838,1666L1302,1202L996,896L1302,590L838,126L838,737L583,482L490,575L810,896L490,1217L583,1310L838,1055L838,1666ZM1557,896C1557,1035.33 1546.33,1157.17 1525,1261.5C1503.67,1365.83 1474.5,1451.5 1437.5,1518.5C1400.5,1585.5 1353.67,1639.67 1297,1681C1240.33,1722.33 1179.83,1751.17 1115.5,1767.5C1051.17,1783.83 978,1792 896,1792C814,1792 740.833,1783.83 676.5,1767.5C612.167,1751.17 551.667,1722.33 495,1681C438.333,1639.67 391.5,1585.5 354.5,1518.5C317.5,1451.5 288.333,1365.83 267,1261.5C245.667,1157.17 235,1035.33 235,896C235,756.667 245.667,634.833 267,530.5C288.333,426.167 317.5,340.5 354.5,273.5C391.5,206.5 438.333,152.333 495,111C551.667,69.667 612.167,40.833 676.5,24.5C740.833,8.167 814,0 896,0C978,0 1051.17,8.167 1115.5,24.5C1179.83,40.833 1240.33,69.667 1297,111C1353.67,152.333 1400.5,206.5 1437.5,273.5C1474.5,340.5 1503.67,426.167 1525,530.5C1546.33,634.833 1557,756.667 1557,896Z" style="fill-rule:nonzero;"/>
        </g>
    </g>
</svg>
