<?xml version="1.0" encoding="UTF-8" standalone="no"?>
<!DOCTYPE svg PUBLIC "-//W3C//DTD SVG 1.1//EN" "http://www.w3.org/Graphics/SVG/1.1/DTD/svg11.dtd">
<svg width="100%" height="100%" viewBox="0 0 512 512" version="1.1" xmlns="http://www.w3.org/2000/svg" xmlns:xlink="http://www.w3.org/1999/xlink" xml:space="preserve" xmlns:serif="http://www.serif.com/" style="fill-rule:evenodd;clip-rule:evenodd;stroke-linecap:round;stroke-linejoin:round;stroke-miterlimit:10;">
    <g>
        <g transform="matrix(0.90129,0,0,1,25.2594,0)">
            <path d="M117.3,91.099L117.2,91L117.2,56C117.2,33 130.6,15.8 151.8,11.5C155.4,10.8 159.1,10.7 162.7,10.7C225,10.7 287.4,10.6 349.7,10.7C376.5,10.7 394.7,28.7 394.7,55.5L394.7,356.203L394.8,356.3L394.8,456.4C394.8,483.1 376.6,501.1 349.8,501.2L162.3,501.2C135.2,501.2 117.3,483.1 117.3,456L117.3,91.099Z" style="fill:none;fill-rule:nonzero;stroke:black;stroke-width:12px;"/>
        </g>
        <g transform="matrix(1,0,0,1,-1,0)">
            <path d="M256.1,426.8C268,426.9 277.2,436.2 277.2,448.2C277.1,460.1 267.7,469.3 255.8,469.3C243.9,469.2 234.7,459.9 234.7,447.9C234.8,435.9 244.2,426.7 256.1,426.8Z" style="fill:none;fill-rule:nonzero;stroke:black;stroke-width:10px;stroke-linecap:butt;stroke-linejoin:miter;"/>
        </g>
        <g transform="matrix(0.90129,0,0,1,25.2594,-3)">
            <path d="M286.7,58.1L225.2,58.1C222.4,58.1 220.1,55.8 220.1,53C220.1,50.2 222.4,47.9 225.2,47.9L286.7,47.9C289.5,47.9 291.8,50.2 291.8,53C291.8,55.8 289.5,58.1 286.7,58.1Z" style="fill-rule:nonzero;"/>
        </g>
        <g id="Layer_2">
        </g>
        <g transform="matrix(16.5114,0,0,16.5114,123.401,117.133)">
            <path d="M8,0C4.687,0 2,2.687 2,6C2,9.854 6.321,14.663 7,15.398C7.281,15.703 7.516,16 8,16C8.484,16 8.719,15.703 9,15.398C9.679,14.663 14,9.854 14,6C14,2.687 11.313,0 8,0ZM8,10C5.791,10 4,8.209 4,6C4,3.791 5.791,2 8,2C10.209,2 12,3.791 12,6C12,8.209 10.209,10 8,10ZM8,4C6.896,4 6,4.896 6,6C6,7.104 6.896,8 8,8C9.104,8 10,7.104 10,6C10,4.896 9.104,4 8,4Z" style="fill-rule:nonzero;"/>
        </g>
    </g>
</svg>
