<?xml version="1.0" encoding="UTF-8" standalone="no"?>
<!DOCTYPE svg PUBLIC "-//W3C//DTD SVG 1.1//EN" "http://www.w3.org/Graphics/SVG/1.1/DTD/svg11.dtd">
<svg width="100%" height="100%" viewBox="0 0 512 512" version="1.1" xmlns="http://www.w3.org/2000/svg" xmlns:xlink="http://www.w3.org/1999/xlink" xml:space="preserve" xmlns:serif="http://www.serif.com/" style="fill-rule:evenodd;clip-rule:evenodd;stroke-linecap:round;stroke-linejoin:round;stroke-miterlimit:10;">
    <g>
        <g transform="matrix(0.90129,0,0,1,25.2594,0)">
            <path d="M117.3,91.099L117.2,91L117.2,56C117.2,33 130.6,15.8 151.8,11.5C155.4,10.8 159.1,10.7 162.7,10.7C225,10.7 287.4,10.6 349.7,10.7C376.5,10.7 394.7,28.7 394.7,55.5L394.7,356.203L394.8,356.3L394.8,456.4C394.8,483.1 376.6,501.1 349.8,501.2L162.3,501.2C135.2,501.2 117.3,483.1 117.3,456L117.3,91.099Z" style="fill:none;fill-rule:nonzero;stroke:black;stroke-width:12px;"/>
        </g>
        <g id="Layer_2">
        </g>
        <g transform="matrix(0.225362,0,0,0.225362,24.7884,24.7884)">
            <g transform="matrix(1,0,0,1,1036.87,-38.7243)">
                <path d="M147.4,451.9C147.8,452.1 148.1,452.4 148.5,452.6C159.4,458.6 171,463.3 182.9,467.4C184.7,468 186.5,468.6 188.3,469.2C209.7,476 232.3,480.1 256,480.1C379.7,480.1 480,379.8 480,256.1C480,171.8 433.4,98.4 364.5,60.2C364.1,60 363.8,59.8 363.5,59.6C352.6,53.6 341,48.9 329.1,44.8C327.3,44.2 325.5,43.6 323.7,43C302.3,36.1 279.6,32 256,32C132.3,32 32,132.3 32,256C32,340.3 78.6,413.6 147.4,451.9ZM118.2,156.6L172.6,211L208.9,170.5L156.5,118.1C184.5,97.9 218.6,85.5 255.9,85.5C265.2,85.5 274.2,86.4 283.1,87.9C292.9,89.5 302.4,92 311.6,95.2C313.4,95.8 315.3,96.4 317.2,97.1C323.4,99.5 329.4,102.1 335.2,105.2C389.4,133.7 426.4,190.5 426.4,256C426.4,293.2 414,327.3 393.7,355.4L339.3,301L303,341.4L355.4,393.8C327.4,414.1 293.2,426.5 256,426.5C246.7,426.5 237.6,425.6 228.8,424.1C219,422.5 209.5,420 200.3,416.8C198.4,416.2 196.5,415.6 194.7,414.9C188.2,412.4 181.8,409.6 175.7,406.3C122.1,377.6 85.6,321.1 85.6,256C85.6,218.8 98,184.7 118.2,156.6Z" style="fill-rule:nonzero;"/>
            </g>
            <g transform="matrix(1,0,0,1,1036.87,-38.7243)">
                <path d="M209.7,389.8L348.9,235L263.6,235L302.2,122.2L163.1,277L248.4,277L209.7,389.8Z" style="fill-rule:nonzero;"/>
            </g>
        </g>
    </g>
</svg>
