<?xml version="1.0" encoding="UTF-8" standalone="no"?>
<!DOCTYPE svg PUBLIC "-//W3C//DTD SVG 1.1//EN" "http://www.w3.org/Graphics/SVG/1.1/DTD/svg11.dtd">
<svg width="100%" height="100%" viewBox="0 0 512 512" version="1.1" xmlns="http://www.w3.org/2000/svg" xmlns:xlink="http://www.w3.org/1999/xlink" xml:space="preserve" xmlns:serif="http://www.serif.com/" style="fill-rule:evenodd;clip-rule:evenodd;stroke-linecap:round;stroke-linejoin:round;stroke-miterlimit:10;">
    <g>
        <g transform="matrix(0.90129,0,0,1,25.2594,0)">
            <path d="M117.3,91.099L117.2,91L117.2,56C117.2,33 130.6,15.8 151.8,11.5C155.4,10.8 159.1,10.7 162.7,10.7C225,10.7 287.4,10.6 349.7,10.7C376.5,10.7 394.7,28.7 394.7,55.5L394.7,356.203L394.8,356.3L394.8,456.4C394.8,483.1 376.6,501.1 349.8,501.2L162.3,501.2C135.2,501.2 117.3,483.1 117.3,456L117.3,91.099Z" style="fill:none;fill-rule:nonzero;stroke:black;stroke-width:12px;"/>
        </g>
        <g transform="matrix(1,0,0,1,-1,0)">
            <path d="M256.1,426.8C268,426.9 277.2,436.2 277.2,448.2C277.1,460.1 267.7,469.3 255.8,469.3C243.9,469.2 234.7,459.9 234.7,447.9C234.8,435.9 244.2,426.7 256.1,426.8Z" style="fill:none;fill-rule:nonzero;stroke:black;stroke-width:10px;stroke-linecap:butt;stroke-linejoin:miter;"/>
        </g>
        <g transform="matrix(0.90129,0,0,1,25.2594,-3)">
            <path d="M286.7,58.1L225.2,58.1C222.4,58.1 220.1,55.8 220.1,53C220.1,50.2 222.4,47.9 225.2,47.9L286.7,47.9C289.5,47.9 291.8,50.2 291.8,53C291.8,55.8 289.5,58.1 286.7,58.1Z" style="fill-rule:nonzero;"/>
        </g>
        <g id="Layer_2">
        </g>
        <g id="layer1" transform="matrix(9.8209,0,0,9.8209,156.304,136.543)">
            <path d="M0,4L0,17L16.707,17L20,13.707L20,4L0,4ZM1,5L19,5L19,13.293L16.293,16L1,16L1,5ZM2,6L2,15L13,15L13,6L2,6ZM3,7L12,7L12,8L9,8L9,9L12,9L12,10L9,10L9,11L12,11L12,12L9,12L9,13L12,13L12,14L3,14L3,13L6,13L6,12L3,12L3,11L6,11L6,10L3,10L3,9L6,9L6,8L3,8L3,7Z" style="fill-rule:nonzero;"/>
        </g>
    </g>
</svg>
