<?xml version="1.0" encoding="UTF-8" standalone="no"?>
<!DOCTYPE svg PUBLIC "-//W3C//DTD SVG 1.1//EN" "http://www.w3.org/Graphics/SVG/1.1/DTD/svg11.dtd">
<svg width="100%" height="100%" viewBox="0 0 512 512" version="1.1" xmlns="http://www.w3.org/2000/svg" xmlns:xlink="http://www.w3.org/1999/xlink" xml:space="preserve" xmlns:serif="http://www.serif.com/" style="fill-rule:evenodd;clip-rule:evenodd;stroke-linecap:round;stroke-linejoin:round;stroke-miterlimit:10;">
    <g>
        <g transform="matrix(0.90129,0,0,1,25.2594,0)">
            <path d="M117.3,91.099L117.2,91L117.2,56C117.2,33 130.6,15.8 151.8,11.5C155.4,10.8 159.1,10.7 162.7,10.7C225,10.7 287.4,10.6 349.7,10.7C376.5,10.7 394.7,28.7 394.7,55.5L394.7,356.203L394.8,356.3L394.8,456.4C394.8,483.1 376.6,501.1 349.8,501.2L162.3,501.2C135.2,501.2 117.3,483.1 117.3,456L117.3,91.099Z" style="fill:none;fill-rule:nonzero;stroke:black;stroke-width:12px;"/>
        </g>
        <g transform="matrix(1,0,0,1,-1,0)">
            <path d="M256.1,426.8C268,426.9 277.2,436.2 277.2,448.2C277.1,460.1 267.7,469.3 255.8,469.3C243.9,469.2 234.7,459.9 234.7,447.9C234.8,435.9 244.2,426.7 256.1,426.8Z" style="fill:none;fill-rule:nonzero;stroke:black;stroke-width:10px;stroke-linecap:butt;stroke-linejoin:miter;"/>
        </g>
        <g transform="matrix(0.90129,0,0,1,25.2594,-3)">
            <path d="M286.7,58.1L225.2,58.1C222.4,58.1 220.1,55.8 220.1,53C220.1,50.2 222.4,47.9 225.2,47.9L286.7,47.9C289.5,47.9 291.8,50.2 291.8,53C291.8,55.8 289.5,58.1 286.7,58.1Z" style="fill-rule:nonzero;"/>
        </g>
        <g id="Layer_2">
        </g>
        <g transform="matrix(0.436705,0,0,0.436705,143.767,115.551)">
            <g>
                <g>
                    <path d="M415.698,192.641C407.319,171.573 394.462,152.373 377.121,135.041L413.43,98.677C440.401,125.666 458.985,156.133 469.175,190.081C475.401,210.764 478.524,232.736 478.542,256L478.542,256.06C478.534,290.071 471.882,321.314 458.585,349.789C447.884,372.813 432.85,394.029 413.488,413.44L377.061,377.018C390.358,363.713 401.009,349.322 409.006,333.847C421.125,310.413 427.176,284.484 427.162,256.059L427.162,256C427.19,233.287 423.372,212.168 415.698,192.641Z"/>
                </g>
                <g>
                    <path d="M351.69,160.99C360.458,169.815 367.752,179.26 373.57,189.324L373.63,189.324C385.079,209.122 390.8,231.307 390.795,255.884L390.795,256C390.791,281.516 384.643,304.478 372.348,324.889L372.291,324.889C366.615,334.223 359.653,343.028 351.399,351.303L351.399,351.243L351.342,351.303L314.915,314.88C317.286,312.432 319.477,309.93 321.491,307.375L321.491,307.315C333.319,292.643 339.254,275.536 339.298,256L339.298,255.884C339.279,232.946 331.174,213.378 314.975,197.179L351.458,160.641C351.541,160.752 351.618,160.868 351.69,160.99Z"/>
                </g>
                <g>
                    <path d="M225.829,225.571C234.171,217.221 244.256,213.052 256.088,213.062C267.939,213.052 278.044,217.221 286.404,225.571L286.463,225.63C294.776,233.978 298.926,244.063 298.914,255.884L298.914,256C298.898,267.798 294.727,277.863 286.404,286.197C286.374,286.224 286.356,286.265 286.346,286.313C277.982,294.585 267.899,298.715 256.087,298.707C244.27,298.716 234.203,294.565 225.886,286.255L225.828,286.197C217.517,277.88 213.347,267.832 213.317,256.059L213.317,255.883C213.305,244.096 217.438,234.029 225.712,225.687C225.747,225.653 225.786,225.615 225.829,225.571Z"/>
                </g>
                <g>
                    <path d="M121.265,255.884C121.259,254.238 121.279,252.611 121.324,250.997C122.437,215.873 135.549,185.755 160.659,160.641L197.085,197.063C180.868,213.298 172.779,232.905 172.82,255.884L172.82,256.06C172.805,258.621 172.903,261.144 173.111,263.623L173.111,263.68C174.721,283.368 182.713,300.416 197.085,314.823C197.12,314.86 197.158,314.898 197.202,314.939L160.717,351.362L160.659,351.303C134.422,325.014 121.291,293.266 121.265,256.06L121.265,255.884Z"/>
                </g>
                <g>
                    <path d="M35.437,225.28C41.558,176.84 62.623,134.619 98.629,98.618L135.054,135.041C105.794,164.28 89.327,198.821 85.652,238.662C85.142,244.343 84.889,250.141 84.896,256.059C84.898,303.265 101.58,343.583 134.938,377.018L134.996,377.077L98.57,413.498L98.512,413.44C55.153,369.981 33.487,317.52 33.515,256.059C33.521,245.532 34.161,235.271 35.437,225.28Z"/>
                </g>
            </g>
        </g>
    </g>
</svg>
