<?xml version="1.0" encoding="UTF-8" standalone="no"?>
<!DOCTYPE svg PUBLIC "-//W3C//DTD SVG 1.1//EN" "http://www.w3.org/Graphics/SVG/1.1/DTD/svg11.dtd">
<svg width="100%" height="100%" viewBox="0 0 512 512" version="1.1" xmlns="http://www.w3.org/2000/svg" xmlns:xlink="http://www.w3.org/1999/xlink" xml:space="preserve" xmlns:serif="http://www.serif.com/" style="fill-rule:evenodd;clip-rule:evenodd;stroke-linecap:round;stroke-linejoin:round;stroke-miterlimit:10;">
    <g>
        <g transform="matrix(0.90129,0,0,1,25.2594,0)">
            <path d="M117.3,91.099L117.2,91L117.2,56C117.2,33 130.6,15.8 151.8,11.5C155.4,10.8 159.1,10.7 162.7,10.7C225,10.7 287.4,10.6 349.7,10.7C376.5,10.7 394.7,28.7 394.7,55.5L394.7,356.203L394.8,356.3L394.8,456.4C394.8,483.1 376.6,501.1 349.8,501.2L162.3,501.2C135.2,501.2 117.3,483.1 117.3,456L117.3,91.099Z" style="fill:none;fill-rule:nonzero;stroke:black;stroke-width:12px;"/>
        </g>
        <g transform="matrix(1,0,0,1,-1,0)">
            <path d="M256.1,426.8C268,426.9 277.2,436.2 277.2,448.2C277.1,460.1 267.7,469.3 255.8,469.3C243.9,469.2 234.7,459.9 234.7,447.9C234.8,435.9 244.2,426.7 256.1,426.8Z" style="fill:none;fill-rule:nonzero;stroke:black;stroke-width:10px;stroke-linecap:butt;stroke-linejoin:miter;"/>
        </g>
        <g transform="matrix(0.90129,0,0,1,25.2594,-3)">
            <path d="M286.7,58.1L225.2,58.1C222.4,58.1 220.1,55.8 220.1,53C220.1,50.2 222.4,47.9 225.2,47.9L286.7,47.9C289.5,47.9 291.8,50.2 291.8,53C291.8,55.8 289.5,58.1 286.7,58.1Z" style="fill-rule:nonzero;"/>
        </g>
        <g id="Layer_2">
        </g>
        <g transform="matrix(3.75431,0,0,3.75431,136.211,121.491)">
            <g>
                <path d="M46,2L11,2C9.903,2 9,2.903 9,4L9,60C9,61.097 9.903,62 11,62L26,62C26.53,62 27.039,61.789 27.414,61.414L29.828,59L34.172,59L36.586,61.414C36.961,61.789 37.47,62 38,62L53,62C54.097,62 55,61.097 55,60L55,11C55,10.47 54.789,9.961 54.414,9.586L47.414,2.586C47.039,2.211 46.53,2 46,2ZM47,34L51,34L51,38L47,38L47,34ZM47,30L47,26L51,26L51,30L47,30ZM51,22L45,22C43.903,22 43,22.903 43,24L43,40C43,41.097 43.903,42 45,42L51,42L51,58L38.828,58L36.414,55.586C36.039,55.211 35.53,55 35,55L29,55C28.47,55 27.961,55.211 27.586,55.586L25.172,58L13,58L13,6L17,6L17,16L21,16L21,6L24,6L24,16L28,16L28,6L31,6L31,16L35,16L35,6L45.172,6L51,11.829L51,22Z" style="fill-rule:nonzero;"/>
                <rect x="20" y="47" width="4" height="4"/>
                <rect x="28" y="47" width="16" height="4"/>
            </g>
        </g>
    </g>
</svg>
