<?xml version="1.0" encoding="UTF-8" standalone="no"?>
<!DOCTYPE svg PUBLIC "-//W3C//DTD SVG 1.1//EN" "http://www.w3.org/Graphics/SVG/1.1/DTD/svg11.dtd">
<svg width="100%" height="100%" viewBox="0 0 512 512" version="1.1" xmlns="http://www.w3.org/2000/svg" xmlns:xlink="http://www.w3.org/1999/xlink" xml:space="preserve" xmlns:serif="http://www.serif.com/" style="fill-rule:evenodd;clip-rule:evenodd;stroke-linecap:round;stroke-linejoin:round;stroke-miterlimit:10;">
    <g>
        <g transform="matrix(0.90129,0,0,1,25.2594,0)">
            <path d="M117.3,91.099L117.2,91L117.2,56C117.2,33 130.6,15.8 151.8,11.5C155.4,10.8 159.1,10.7 162.7,10.7C225,10.7 287.4,10.6 349.7,10.7C376.5,10.7 394.7,28.7 394.7,55.5L394.7,356.203L394.8,356.3L394.8,456.4C394.8,483.1 376.6,501.1 349.8,501.2L162.3,501.2C135.2,501.2 117.3,483.1 117.3,456L117.3,91.099Z" style="fill:none;fill-rule:nonzero;stroke:black;stroke-width:12px;"/>
        </g>
        <g transform="matrix(1,0,0,1,-1,0)">
            <path d="M256.1,426.8C268,426.9 277.2,436.2 277.2,448.2C277.1,460.1 267.7,469.3 255.8,469.3C243.9,469.2 234.7,459.9 234.7,447.9C234.8,435.9 244.2,426.7 256.1,426.8Z" style="fill:none;fill-rule:nonzero;stroke:black;stroke-width:10px;stroke-linecap:butt;stroke-linejoin:miter;"/>
        </g>
        <g transform="matrix(0.90129,0,0,1,25.2594,-3)">
            <path d="M286.7,58.1L225.2,58.1C222.4,58.1 220.1,55.8 220.1,53C220.1,50.2 222.4,47.9 225.2,47.9L286.7,47.9C289.5,47.9 291.8,50.2 291.8,53C291.8,55.8 289.5,58.1 286.7,58.1Z" style="fill-rule:nonzero;"/>
        </g>
        <g id="Layer_2">
        </g>
        <g id="Laag-1" serif:id="Laag 1" transform="matrix(4.10783,0,0,4.10783,-1474.73,-964.224)">
            <g transform="matrix(1,0,0,1,437.984,293.472)">
                <path d="M0,7.51C0,4.994 -0.162,2.379 0.035,-0.21C0.388,-4.819 -1.477,-6.209 -5.778,-4.769L-5.778,7.51L0,7.51ZM-27.193,10.09C-30.674,9.221 -32.228,10.25 -32.061,13.689C-31.917,16.66 -31.947,19.647 -32.053,22.621C-32.179,26.131 -30.774,27.438 -27.193,26.352L-27.193,10.09ZM-24.018,10.279C-24.018,14.885 -24.171,19.213 -23.914,23.516C-23.847,24.632 -22.684,26.283 -21.689,26.586C-20.499,26.948 -17.754,26.168 -17.742,25.813C-17.631,22.507 -17.346,18.977 -18.379,15.944C-19.098,13.831 -21.802,12.397 -24.018,10.279M-22.283,8.184L-22.283,-5.697C-25.62,-5.156 -30.479,-5.533 -31.175,-4.008C-32.543,-1.011 -32.555,3.476 -31.206,6.483C-30.525,8.002 -25.648,7.635 -22.283,8.184M-0.009,9.112C-2.173,9.926 -3.862,10.211 -5.116,11.107C-7.78,13.007 -10.218,15.225 -12.748,17.312L-13.671,16.307L-13.671,26.782C-10.017,26.782 -6.661,27.075 -3.404,26.634C-2.155,26.464 -0.265,24.693 -0.163,23.522C0.221,19.075 -0.009,14.576 -0.009,9.112M-19.013,-5.029C-19.013,-0.207 -19.322,4.418 -18.828,8.955C-18.676,10.346 -16.196,12.645 -15.003,12.514C-12.605,12.251 -8.626,10.914 -8.368,9.471C-7.522,4.735 -8.051,-0.248 -8.051,-5.029L-19.013,-5.029ZM6.005,4.756C6.005,12.763 5.905,20.771 6.057,28.774C6.114,31.773 5.182,32.893 2.072,32.857C-9.924,32.717 -21.923,32.741 -33.92,32.84C-36.88,32.864 -38.102,31.883 -38.081,28.797C-37.982,13.953 -38.074,-0.892 -38.009,-15.737C-37.994,-19.196 -32.096,-25.229 -28.602,-25.269C-18.604,-25.383 -8.605,-25.264 1.393,-25.332C5.348,-25.359 6.03,-22.964 6.017,-19.763C5.981,-11.59 6.005,-3.417 6.005,4.756" style="fill-rule:nonzero;"/>
            </g>
            <g transform="matrix(1,0,0,1,418.972,306.117)">
                <path d="M0,-17.673L10.962,-17.673C10.962,-12.892 11.49,-7.91 10.645,-3.173C10.387,-1.73 6.407,-0.393 4.01,-0.131C2.816,0 0.336,-2.298 0.185,-3.689C-0.309,-8.226 0,-12.851 0,-17.673" style="fill:white;fill-rule:nonzero;"/>
            </g>
            <g transform="matrix(1,0,0,1,437.976,320.548)">
                <path d="M0,-17.964C0,-12.499 0.229,-8 -0.154,-3.554C-0.256,-2.383 -2.146,-0.611 -3.396,-0.442C-6.652,0 -10.008,-0.293 -13.662,-0.293L-13.662,-10.769L-12.739,-9.764C-10.209,-11.851 -7.771,-14.068 -5.107,-15.969C-3.854,-16.864 -2.164,-17.15 0,-17.964" style="fill:white;fill-rule:nonzero;"/>
            </g>
            <g transform="matrix(0.807944,-0.589259,-0.589259,-0.807944,418.805,297.297)">
                <path d="M-5.076,-1.693C-7.471,0.733 -11.628,3.31 -11.283,4.939C-10.601,8.163 -7.948,11.781 -5.076,13.397C-3.615,14.219 0.088,11.051 3.103,9.522L-5.076,-1.693Z" style="fill:white;fill-rule:nonzero;"/>
            </g>
            <g transform="matrix(1,0,0,1,413.966,320.421)">
                <path d="M0,-16.67C2.216,-14.552 4.92,-13.117 5.639,-11.005C6.672,-7.972 6.387,-4.441 6.276,-1.136C6.264,-0.78 3.519,0 2.329,-0.362C1.334,-0.665 0.171,-2.316 0.104,-3.433C-0.153,-7.735 0,-12.064 0,-16.67" style="fill:white;fill-rule:nonzero;"/>
            </g>
            <g transform="matrix(0,1,1,0,416.513,314.319)">
                <path d="M-10.756,-5.723L5.505,-5.723C6.592,-9.304 5.285,-10.708 1.774,-10.583C-1.199,-10.477 -4.186,-10.447 -7.157,-10.59C-10.596,-10.756 -11.625,-9.204 -10.756,-5.723" style="fill:white;fill-rule:nonzero;"/>
            </g>
            <g transform="matrix(-1,0,0,1,432.594,287.263)">
                <path d="M-5.39,13.719L0.388,13.719L0.388,1.44C-3.913,0 -5.778,1.39 -5.425,5.999C-5.228,8.588 -5.39,11.203 -5.39,13.719" style="fill:white;fill-rule:nonzero;"/>
            </g>
        </g>
    </g>
</svg>
