<?xml version="1.0" encoding="UTF-8" standalone="no"?>
<!DOCTYPE svg PUBLIC "-//W3C//DTD SVG 1.1//EN" "http://www.w3.org/Graphics/SVG/1.1/DTD/svg11.dtd">
<svg width="100%" height="100%" viewBox="0 0 512 512" version="1.1" xmlns="http://www.w3.org/2000/svg" xmlns:xlink="http://www.w3.org/1999/xlink" xml:space="preserve" xmlns:serif="http://www.serif.com/" style="fill-rule:evenodd;clip-rule:evenodd;stroke-linecap:round;stroke-linejoin:round;stroke-miterlimit:10;">
    <g>
        <g transform="matrix(0.90129,0,0,1,25.2594,0)">
            <path d="M117.3,91.099L117.2,91L117.2,56C117.2,33 130.6,15.8 151.8,11.5C155.4,10.8 159.1,10.7 162.7,10.7C225,10.7 287.4,10.6 349.7,10.7C376.5,10.7 394.7,28.7 394.7,55.5L394.7,356.203L394.8,356.3L394.8,456.4C394.8,483.1 376.6,501.1 349.8,501.2L162.3,501.2C135.2,501.2 117.3,483.1 117.3,456L117.3,91.099Z" style="fill:none;fill-rule:nonzero;stroke:black;stroke-width:12px;"/>
        </g>
        <g transform="matrix(1,0,0,1,-1,0)">
            <path d="M256.1,426.8C268,426.9 277.2,436.2 277.2,448.2C277.1,460.1 267.7,469.3 255.8,469.3C243.9,469.2 234.7,459.9 234.7,447.9C234.8,435.9 244.2,426.7 256.1,426.8Z" style="fill:none;fill-rule:nonzero;stroke:black;stroke-width:10px;stroke-linecap:butt;stroke-linejoin:miter;"/>
        </g>
        <g transform="matrix(0.90129,0,0,1,25.2594,-3)">
            <path d="M286.7,58.1L225.2,58.1C222.4,58.1 220.1,55.8 220.1,53C220.1,50.2 222.4,47.9 225.2,47.9L286.7,47.9C289.5,47.9 291.8,50.2 291.8,53C291.8,55.8 289.5,58.1 286.7,58.1Z" style="fill-rule:nonzero;"/>
        </g>
        <g id="Layer_2">
        </g>
        <g id="Laag-1" serif:id="Laag 1">
        </g>
        <g id="_x30_1_" serif:id="_x30_1" transform="matrix(9.95439,0,0,9.95439,96.9747,78.0118)">
            <g>
                <path d="M16.707,2.293C16.316,1.902 15.684,1.902 15.293,2.293C14.914,2.672 6,11.682 6,20C6,25.514 10.486,30 16,30C21.514,30 26,25.514 26,20C26,11.682 17.087,2.672 16.707,2.293ZM16,28C11.589,28 8,24.411 8,20C8,13.792 13.925,6.739 16,4.459C18.076,6.737 24,13.784 24,20C24,24.411 20.411,28 16,28Z" style="fill-rule:nonzero;"/>
                <path d="M16,24C13.794,24 12,22.189 12,19.964C12,19.412 11.552,18.964 11,18.964C10.448,18.964 10,19.412 10,19.964C10,23.292 12.691,26 16,26C16.552,26 17,25.552 17,25C17,24.448 16.552,24 16,24Z" style="fill-rule:nonzero;"/>
            </g>
        </g>
    </g>
</svg>
