<?xml version="1.0" encoding="UTF-8" standalone="no"?>
<!DOCTYPE svg PUBLIC "-//W3C//DTD SVG 1.1//EN" "http://www.w3.org/Graphics/SVG/1.1/DTD/svg11.dtd">
<svg width="100%" height="100%" viewBox="0 0 512 512" version="1.1" xmlns="http://www.w3.org/2000/svg" xmlns:xlink="http://www.w3.org/1999/xlink" xml:space="preserve" xmlns:serif="http://www.serif.com/" style="fill-rule:evenodd;clip-rule:evenodd;stroke-linecap:round;stroke-linejoin:round;stroke-miterlimit:10;">
    <g>
        <g transform="matrix(0.90129,0,0,1,25.2594,0)">
            <path d="M117.3,91.099L117.2,91L117.2,56C117.2,33 130.6,15.8 151.8,11.5C155.4,10.8 159.1,10.7 162.7,10.7C225,10.7 287.4,10.6 349.7,10.7C376.5,10.7 394.7,28.7 394.7,55.5L394.7,356.203L394.8,356.3L394.8,456.4C394.8,483.1 376.6,501.1 349.8,501.2L162.3,501.2C135.2,501.2 117.3,483.1 117.3,456L117.3,91.099Z" style="fill:none;fill-rule:nonzero;stroke:black;stroke-width:12px;"/>
        </g>
        <g transform="matrix(1,0,0,1,-1,0)">
            <path d="M256.1,426.8C268,426.9 277.2,436.2 277.2,448.2C277.1,460.1 267.7,469.3 255.8,469.3C243.9,469.2 234.7,459.9 234.7,447.9C234.8,435.9 244.2,426.7 256.1,426.8Z" style="fill:none;fill-rule:nonzero;stroke:black;stroke-width:10px;stroke-linecap:butt;stroke-linejoin:miter;"/>
        </g>
        <g transform="matrix(0.90129,0,0,1,25.2594,-3)">
            <path d="M286.7,58.1L225.2,58.1C222.4,58.1 220.1,55.8 220.1,53C220.1,50.2 222.4,47.9 225.2,47.9L286.7,47.9C289.5,47.9 291.8,50.2 291.8,53C291.8,55.8 289.5,58.1 286.7,58.1Z" style="fill-rule:nonzero;"/>
        </g>
        <g id="Layer_2">
        </g>
        <g id="Laag-1" serif:id="Laag 1">
        </g>
        <g id="layer1" transform="matrix(7.43373,0,0,7.43373,122.769,-7447.93)">
            <path id="rect5086" d="M5,1019.36L31,1019.36C32.117,1019.36 33,1020.25 33,1021.36L33,1047.36C33,1048.48 32.117,1049.36 31,1049.36L5,1049.36C3.883,1049.36 3,1048.48 3,1047.36L3,1021.36C3,1020.25 3.883,1019.36 5,1019.36ZM5.75,1020.36C4.789,1020.36 4,1021.15 4,1022.11C4,1023.07 4.789,1023.86 5.75,1023.86C6.711,1023.86 7.5,1023.07 7.5,1022.11C7.5,1021.15 6.711,1020.36 5.75,1020.36ZM30.25,1020.36C29.289,1020.36 28.5,1021.15 28.5,1022.11C28.5,1023.07 29.289,1023.86 30.25,1023.86C31.211,1023.86 32,1023.07 32,1022.11C32,1021.15 31.211,1020.36 30.25,1020.36ZM5.75,1021.36C6.17,1021.36 6.5,1021.69 6.5,1022.11C6.5,1022.53 6.17,1022.86 5.75,1022.86C5.33,1022.86 5,1022.53 5,1022.11C5,1021.69 5.33,1021.36 5.75,1021.36ZM14.5,1021.36L14.5,1024.36L13.5,1024.36C13.224,1024.36 13,1024.59 13,1024.86L13,1026.36L11.438,1026.36C10.65,1026.36 10,1027.01 10,1027.8L10,1029.36L8.5,1029.36C8.224,1029.36 8,1029.59 8,1029.86L8,1030.86L5,1030.86L5,1031.86L8,1031.86L8,1032.86L5,1032.86L5,1033.86L8,1033.86L8,1034.86L5,1034.86L5,1035.86L8,1035.86L8,1036.86L5,1036.86L5,1037.86L8,1037.86L8,1038.86C8,1039.14 8.224,1039.36 8.5,1039.36L10,1039.36L10,1040.92C10,1041.71 10.65,1042.36 11.438,1042.36L13,1042.36L13,1043.86C13,1044.14 13.224,1044.36 13.5,1044.36L14.5,1044.36L14.5,1047.36L15.5,1047.36L15.5,1044.36L16.5,1044.36L16.5,1047.36L17.5,1047.36L17.5,1044.36L18.5,1044.36L18.5,1047.36L19.5,1047.36L19.5,1044.36L20.5,1044.36L20.5,1047.36L21.5,1047.36L21.5,1044.36L22.5,1044.36C22.516,1044.36 22.533,1044.36 22.549,1044.36C22.804,1044.34 22.999,1044.12 23,1043.87L23,1042.37L24.562,1042.37C25.35,1042.37 26,1041.72 26,1040.93L26,1039.37L27.5,1039.37L27.492,1039.36C27.768,1039.36 27.995,1039.14 28,1038.86L28,1037.86L31,1037.86L31,1036.86L28,1036.86L28,1035.86L31,1035.86L31,1034.86L28,1034.86L28,1033.86L31,1033.86L31,1032.86L28,1032.86L28,1031.86L31,1031.86L31,1030.86L28,1030.86L28,1029.86C28,1029.59 27.776,1029.36 27.5,1029.36L26,1029.36L26,1027.8C26,1027.01 25.35,1026.36 24.562,1026.36L23,1026.36L23,1024.86L22.5,1025.36L22.5,1024.36L21.5,1024.36L21.5,1021.36L20.5,1021.36L20.5,1024.36L19.5,1024.36L19.5,1021.36L18.5,1021.36L18.5,1024.36L17.5,1024.36L17.5,1021.36L16.5,1021.36L16.5,1024.36L15.5,1024.36L15.5,1021.36L14.5,1021.36ZM30.25,1021.36C30.67,1021.36 31,1021.69 31,1022.11C31,1022.53 30.67,1022.86 30.25,1022.86C29.83,1022.86 29.5,1022.53 29.5,1022.11C29.5,1021.69 29.83,1021.36 30.25,1021.36ZM14,1025.36L22,1025.36L22,1026.36L14,1026.36L14,1025.36ZM11.438,1027.36L24.563,1027.36C24.814,1027.36 25,1027.55 25,1027.8L25,1040.93C25,1041.18 24.814,1041.36 24.563,1041.36L11.438,1041.36C11.186,1041.36 11,1041.18 11,1040.92L11,1027.8C11,1027.55 11.186,1027.36 11.438,1027.36L11.438,1027.36ZM13.965,1029.86C13.703,1029.88 13.499,1030.1 13.5,1030.36C13.5,1030.64 13.724,1030.86 14,1030.86C14.276,1030.86 14.5,1030.64 14.5,1030.36C14.5,1030.09 14.276,1029.86 14,1029.86C13.988,1029.86 13.977,1029.86 13.965,1029.86L13.965,1029.86ZM15.965,1029.86C15.703,1029.88 15.499,1030.1 15.5,1030.36C15.5,1030.64 15.724,1030.86 16,1030.86C16.276,1030.86 16.5,1030.64 16.5,1030.36C16.5,1030.09 16.276,1029.86 16,1029.86C15.988,1029.86 15.977,1029.86 15.965,1029.86L15.965,1029.86ZM17.965,1029.86C17.703,1029.88 17.499,1030.1 17.5,1030.36C17.5,1030.64 17.724,1030.86 18,1030.86C18.276,1030.86 18.5,1030.64 18.5,1030.36C18.5,1030.09 18.276,1029.86 18,1029.86C17.988,1029.86 17.977,1029.86 17.965,1029.86L17.965,1029.86ZM19.965,1029.86C19.703,1029.88 19.499,1030.1 19.5,1030.36C19.5,1030.64 19.724,1030.86 20,1030.86C20.276,1030.86 20.5,1030.64 20.5,1030.36C20.5,1030.09 20.276,1029.86 20,1029.86C19.988,1029.86 19.977,1029.86 19.965,1029.86L19.965,1029.86ZM21.965,1029.86C21.703,1029.88 21.499,1030.1 21.5,1030.36C21.5,1030.64 21.724,1030.86 22,1030.86C22.276,1030.86 22.5,1030.64 22.5,1030.36C22.5,1030.09 22.276,1029.86 22,1029.86C21.988,1029.86 21.977,1029.86 21.965,1029.86L21.965,1029.86ZM9,1030.36L10,1030.36L10,1038.36L9,1038.36L9,1030.36ZM26,1030.36L27,1030.36L27,1038.36L26,1038.36L26,1030.36ZM14.965,1031.86C14.703,1031.88 14.499,1032.1 14.5,1032.36C14.5,1032.64 14.724,1032.86 15,1032.86C15.276,1032.86 15.5,1032.64 15.5,1032.36C15.5,1032.09 15.276,1031.86 15,1031.86C14.988,1031.86 14.977,1031.86 14.965,1031.86L14.965,1031.86ZM16.965,1031.86C16.703,1031.88 16.499,1032.1 16.5,1032.36C16.5,1032.64 16.724,1032.86 17,1032.86C17.276,1032.86 17.5,1032.64 17.5,1032.36C17.5,1032.09 17.276,1031.86 17,1031.86C16.988,1031.86 16.977,1031.86 16.965,1031.86L16.965,1031.86ZM18.965,1031.86C18.703,1031.88 18.499,1032.1 18.5,1032.36C18.5,1032.64 18.724,1032.86 19,1032.86C19.276,1032.86 19.5,1032.64 19.5,1032.36C19.5,1032.09 19.276,1031.86 19,1031.86C18.988,1031.86 18.977,1031.86 18.965,1031.86L18.965,1031.86ZM20.965,1031.86C20.703,1031.88 20.499,1032.1 20.5,1032.36C20.5,1032.64 20.724,1032.86 21,1032.86C21.276,1032.86 21.5,1032.64 21.5,1032.36C21.5,1032.09 21.276,1031.86 21,1031.86C20.988,1031.86 20.977,1031.86 20.965,1031.86L20.965,1031.86ZM13.965,1033.86C13.703,1033.88 13.499,1034.1 13.5,1034.36C13.5,1034.64 13.724,1034.86 14,1034.86C14.276,1034.86 14.5,1034.64 14.5,1034.36C14.5,1034.09 14.276,1033.86 14,1033.86C13.988,1033.86 13.977,1033.86 13.965,1033.86L13.965,1033.86ZM15.965,1033.86C15.703,1033.88 15.499,1034.1 15.5,1034.36C15.5,1034.64 15.724,1034.86 16,1034.86C16.276,1034.86 16.5,1034.64 16.5,1034.36C16.5,1034.09 16.276,1033.86 16,1033.86C15.988,1033.86 15.977,1033.86 15.965,1033.86L15.965,1033.86ZM17.965,1033.86C17.703,1033.88 17.499,1034.1 17.5,1034.36C17.5,1034.64 17.724,1034.86 18,1034.86C18.276,1034.86 18.5,1034.64 18.5,1034.36C18.5,1034.09 18.276,1033.86 18,1033.86C17.988,1033.86 17.977,1033.86 17.965,1033.86L17.965,1033.86ZM19.965,1033.86C19.703,1033.88 19.499,1034.1 19.5,1034.36C19.5,1034.64 19.724,1034.86 20,1034.86C20.276,1034.86 20.5,1034.64 20.5,1034.36C20.5,1034.09 20.276,1033.86 20,1033.86C19.988,1033.86 19.977,1033.86 19.965,1033.86L19.965,1033.86ZM21.965,1033.86C21.703,1033.88 21.499,1034.1 21.5,1034.36C21.5,1034.64 21.724,1034.86 22,1034.86C22.276,1034.86 22.5,1034.64 22.5,1034.36C22.5,1034.09 22.276,1033.86 22,1033.86C21.988,1033.86 21.977,1033.86 21.965,1033.86L21.965,1033.86ZM14.965,1035.86C14.703,1035.88 14.499,1036.1 14.5,1036.36C14.5,1036.64 14.724,1036.86 15,1036.86C15.276,1036.86 15.5,1036.64 15.5,1036.36C15.5,1036.09 15.276,1035.86 15,1035.86C14.988,1035.86 14.977,1035.86 14.965,1035.86L14.965,1035.86ZM16.965,1035.86C16.703,1035.88 16.499,1036.1 16.5,1036.36C16.5,1036.64 16.724,1036.86 17,1036.86C17.276,1036.86 17.5,1036.64 17.5,1036.36C17.5,1036.09 17.276,1035.86 17,1035.86C16.988,1035.86 16.977,1035.86 16.965,1035.86L16.965,1035.86ZM18.965,1035.86C18.703,1035.88 18.499,1036.1 18.5,1036.36C18.5,1036.64 18.724,1036.86 19,1036.86C19.276,1036.86 19.5,1036.64 19.5,1036.36C19.5,1036.09 19.276,1035.86 19,1035.86C18.988,1035.86 18.977,1035.86 18.965,1035.86L18.965,1035.86ZM20.965,1035.86C20.703,1035.88 20.499,1036.1 20.5,1036.36C20.5,1036.64 20.724,1036.86 21,1036.86C21.276,1036.86 21.5,1036.64 21.5,1036.36C21.5,1036.09 21.276,1035.86 21,1035.86C20.988,1035.86 20.977,1035.86 20.965,1035.86L20.965,1035.86ZM13.965,1037.86C13.703,1037.88 13.499,1038.1 13.5,1038.36C13.5,1038.64 13.724,1038.86 14,1038.86C14.276,1038.86 14.5,1038.64 14.5,1038.36C14.5,1038.09 14.276,1037.86 14,1037.86C13.988,1037.86 13.977,1037.86 13.965,1037.86L13.965,1037.86ZM15.965,1037.86C15.703,1037.88 15.499,1038.1 15.5,1038.36C15.5,1038.64 15.724,1038.86 16,1038.86C16.276,1038.86 16.5,1038.64 16.5,1038.36C16.5,1038.09 16.276,1037.86 16,1037.86C15.988,1037.86 15.977,1037.86 15.965,1037.86L15.965,1037.86ZM17.965,1037.86C17.703,1037.88 17.499,1038.1 17.5,1038.36C17.5,1038.64 17.724,1038.86 18,1038.86C18.276,1038.86 18.5,1038.64 18.5,1038.36C18.5,1038.09 18.276,1037.86 18,1037.86C17.988,1037.86 17.977,1037.86 17.965,1037.86L17.965,1037.86ZM19.965,1037.86C19.703,1037.88 19.499,1038.1 19.5,1038.36C19.5,1038.64 19.724,1038.86 20,1038.86C20.276,1038.86 20.5,1038.64 20.5,1038.36C20.5,1038.09 20.276,1037.86 20,1037.86C19.988,1037.86 19.977,1037.86 19.965,1037.86L19.965,1037.86ZM21.965,1037.86C21.703,1037.88 21.499,1038.1 21.5,1038.36C21.5,1038.64 21.724,1038.86 22,1038.86C22.276,1038.86 22.5,1038.64 22.5,1038.36C22.5,1038.09 22.276,1037.86 22,1037.86C21.988,1037.86 21.977,1037.86 21.965,1037.86L21.965,1037.86ZM14,1042.36L22,1042.36L22,1043.36L14,1043.36L14,1042.36ZM5.75,1044.86C4.789,1044.86 4,1045.65 4,1046.61C4,1047.57 4.789,1048.36 5.75,1048.36C6.711,1048.36 7.5,1047.57 7.5,1046.61C7.5,1045.65 6.711,1044.86 5.75,1044.86ZM30.25,1044.86C29.289,1044.86 28.5,1045.65 28.5,1046.61C28.5,1047.57 29.289,1048.36 30.25,1048.36C31.211,1048.36 32,1047.57 32,1046.61C32,1045.65 31.211,1044.86 30.25,1044.86ZM5.75,1045.86C6.17,1045.86 6.5,1046.19 6.5,1046.61C6.5,1047.03 6.17,1047.36 5.75,1047.36C5.33,1047.36 5,1047.03 5,1046.61C5,1046.19 5.33,1045.86 5.75,1045.86ZM30.25,1045.86C30.67,1045.86 31,1046.19 31,1046.61C31,1047.03 30.67,1047.36 30.25,1047.36C29.83,1047.36 29.5,1047.03 29.5,1046.61C29.5,1046.19 29.83,1045.86 30.25,1045.86Z" style="fill-rule:nonzero;"/>
        </g>
    </g>
</svg>
