<?xml version="1.0" encoding="UTF-8" standalone="no"?>
<!DOCTYPE svg PUBLIC "-//W3C//DTD SVG 1.1//EN" "http://www.w3.org/Graphics/SVG/1.1/DTD/svg11.dtd">
<svg width="100%" height="100%" viewBox="0 0 512 512" version="1.1" xmlns="http://www.w3.org/2000/svg" xmlns:xlink="http://www.w3.org/1999/xlink" xml:space="preserve" xmlns:serif="http://www.serif.com/" style="fill-rule:evenodd;clip-rule:evenodd;stroke-linecap:round;stroke-linejoin:round;stroke-miterlimit:10;">
    <g>
        <g transform="matrix(0.90129,0,0,1,25.2594,0)">
            <path d="M117.3,91.099L117.2,91L117.2,56C117.2,33 130.6,15.8 151.8,11.5C155.4,10.8 159.1,10.7 162.7,10.7C225,10.7 287.4,10.6 349.7,10.7C376.5,10.7 394.7,28.7 394.7,55.5L394.7,356.203L394.8,356.3L394.8,456.4C394.8,483.1 376.6,501.1 349.8,501.2L162.3,501.2C135.2,501.2 117.3,483.1 117.3,456L117.3,91.099Z" style="fill:none;fill-rule:nonzero;stroke:black;stroke-width:12px;"/>
        </g>
        <g transform="matrix(1,0,0,1,-1,0)">
            <path d="M256.1,426.8C268,426.9 277.2,436.2 277.2,448.2C277.1,460.1 267.7,469.3 255.8,469.3C243.9,469.2 234.7,459.9 234.7,447.9C234.8,435.9 244.2,426.7 256.1,426.8Z" style="fill:none;fill-rule:nonzero;stroke:black;stroke-width:10px;stroke-linecap:butt;stroke-linejoin:miter;"/>
        </g>
        <g transform="matrix(0.90129,0,0,1,25.2594,-3)">
            <path d="M286.7,58.1L225.2,58.1C222.4,58.1 220.1,55.8 220.1,53C220.1,50.2 222.4,47.9 225.2,47.9L286.7,47.9C289.5,47.9 291.8,50.2 291.8,53C291.8,55.8 289.5,58.1 286.7,58.1Z" style="fill-rule:nonzero;"/>
        </g>
        <g transform="matrix(5.07731,0,0,5.07731,-324.04,127.923)">
            <path d="M121.01,13L121,13L121,4C121,2.346 119.654,1 118,1L110,1C108.346,1 107,2.346 107,4L107,13L106.99,13C105.342,13 104,14.341 104,15.989L104,35C104,37.415 105.721,39.435 108,39.899L108,46.031C108,47.327 108.84,48.42 110,48.824L118,48.824C119.16,48.42 120,47.327 120,46.031L120,39.899C122.279,39.434 124,37.415 124,35L124,15.989C124,14.341 122.659,13 121.01,13ZM109,4C109,3.448 109.449,3 110,3L118,3C118.551,3 119,3.448 119,4L119,13L109,13L109,4ZM106.99,15L121.011,15C121.557,15 122.001,15.443 122.001,15.989L122.001,32L106.001,32L106.001,15.989C106,15.443 106.444,15 106.99,15ZM116,49L112,49L116,49ZM122,35C122,36.654 120.654,38 119,38C118.448,38 118,38.447 118,39L118,46.031C118,46.565 117.565,47 117.031,47L110.969,47C110.435,47 110,46.565 110,46.031L110,39C110,38.447 109.552,38 109,38C107.346,38 106,36.654 106,35L106,34L122,34L122,35Z" style="fill-rule:nonzero;"/>
        </g>
        <g transform="matrix(5.07731,0,0,5.07731,-324.04,127.923)">
            <path d="M112,5C111.448,5 111,5.447 111,6L111,10C111,10.553 111.448,11 112,11C112.552,11 113,10.553 113,10L113,6C113,5.447 112.552,5 112,5Z" style="fill-rule:nonzero;"/>
        </g>
        <g transform="matrix(5.07731,0,0,5.07731,-324.04,127.923)">
            <path d="M116,5C115.448,5 115,5.447 115,6L115,10C115,10.553 115.448,11 116,11C116.552,11 117,10.553 117,10L117,6C117,5.447 116.552,5 116,5Z" style="fill-rule:nonzero;"/>
        </g>
    </g>
</svg>
