<?xml version="1.0" encoding="UTF-8" standalone="no"?>
<!DOCTYPE svg PUBLIC "-//W3C//DTD SVG 1.1//EN" "http://www.w3.org/Graphics/SVG/1.1/DTD/svg11.dtd">
<svg width="100%" height="100%" viewBox="0 0 512 512" version="1.1" xmlns="http://www.w3.org/2000/svg" xmlns:xlink="http://www.w3.org/1999/xlink" xml:space="preserve" xmlns:serif="http://www.serif.com/" style="fill-rule:evenodd;clip-rule:evenodd;stroke-linecap:round;stroke-linejoin:round;stroke-miterlimit:10;">
    <g>
        <g transform="matrix(0.90129,0,0,1,25.2594,0)">
            <path d="M117.3,91.099L117.2,91L117.2,56C117.2,33 130.6,15.8 151.8,11.5C155.4,10.8 159.1,10.7 162.7,10.7C225,10.7 287.4,10.6 349.7,10.7C376.5,10.7 394.7,28.7 394.7,55.5L394.7,356.203L394.8,356.3L394.8,456.4C394.8,483.1 376.6,501.1 349.8,501.2L162.3,501.2C135.2,501.2 117.3,483.1 117.3,456L117.3,91.099Z" style="fill:none;fill-rule:nonzero;stroke:black;stroke-width:12px;"/>
        </g>
        <g transform="matrix(1,0,0,1,-1,0)">
            <path d="M256.1,426.8C268,426.9 277.2,436.2 277.2,448.2C277.1,460.1 267.7,469.3 255.8,469.3C243.9,469.2 234.7,459.9 234.7,447.9C234.8,435.9 244.2,426.7 256.1,426.8Z" style="fill:none;fill-rule:nonzero;stroke:black;stroke-width:10px;stroke-linecap:butt;stroke-linejoin:miter;"/>
        </g>
        <g transform="matrix(0.90129,0,0,1,25.2594,-3)">
            <path d="M286.7,58.1L225.2,58.1C222.4,58.1 220.1,55.8 220.1,53C220.1,50.2 222.4,47.9 225.2,47.9L286.7,47.9C289.5,47.9 291.8,50.2 291.8,53C291.8,55.8 289.5,58.1 286.7,58.1Z" style="fill-rule:nonzero;"/>
        </g>
        <g transform="matrix(0.388922,0,0,0.388922,157.293,35.6613)">
            <path d="M430.4,147L362.9,147L322.5,106.2C322.5,106.2 322.3,106 322.2,106L322,105.8C316,99.8 307.9,96 298.7,96L214.7,96C204.9,96 196.2,100.2 190.1,106.9L190.1,107L150.6,147L81.6,147C63,147 48,161.6 48,180.2L48,382.3C48,400.9 63,416 81.6,416L430.4,416C448.9,416 464,400.9 464,382.3L464,180.2C464,161.6 448.9,147 430.4,147ZM256,365.5C205.1,365.5 163.6,323.9 163.6,272.9C163.6,221.8 205.1,180.3 256,180.3C307,180.3 348.4,221.8 348.4,272.9C348.4,323.9 307,365.5 256,365.5ZM424.1,200.5C416.4,200.5 410.1,194.2 410.1,186.4C410.1,178.6 416.4,172.3 424.1,172.3C431.8,172.3 438.1,178.6 438.1,186.4C438.1,194.2 431.8,200.5 424.1,200.5Z" style="fill-rule:nonzero;"/>
            <path d="M256,202.9C217.4,202.9 186.2,234.2 186.2,272.9C186.2,311.5 217.4,342.9 256,342.9C294.5,342.9 325.8,311.6 325.8,272.9C325.8,234.2 294.5,202.9 256,202.9Z" style="fill-rule:nonzero;"/>
        </g>
    </g>
</svg>
