<?xml version="1.0" encoding="UTF-8" standalone="no"?>
<!DOCTYPE svg PUBLIC "-//W3C//DTD SVG 1.1//EN" "http://www.w3.org/Graphics/SVG/1.1/DTD/svg11.dtd">
<svg width="100%" height="100%" viewBox="0 0 512 512" version="1.1" xmlns="http://www.w3.org/2000/svg" xmlns:xlink="http://www.w3.org/1999/xlink" xml:space="preserve" xmlns:serif="http://www.serif.com/" style="fill-rule:evenodd;clip-rule:evenodd;stroke-linecap:round;stroke-linejoin:round;stroke-miterlimit:10;">
    <g>
        <g transform="matrix(0.90129,0,0,1,25.2594,0)">
            <path d="M117.3,91.099L117.2,91L117.2,56C117.2,33 130.6,15.8 151.8,11.5C155.4,10.8 159.1,10.7 162.7,10.7C225,10.7 287.4,10.6 349.7,10.7C376.5,10.7 394.7,28.7 394.7,55.5L394.7,356.203L394.8,356.3L394.8,456.4C394.8,483.1 376.6,501.1 349.8,501.2L162.3,501.2C135.2,501.2 117.3,483.1 117.3,456L117.3,91.099Z" style="fill:none;fill-rule:nonzero;stroke:black;stroke-width:12px;"/>
        </g>
        <g transform="matrix(1,0,0,1,-1,0)">
            <path d="M256.1,426.8C268,426.9 277.2,436.2 277.2,448.2C277.1,460.1 267.7,469.3 255.8,469.3C243.9,469.2 234.7,459.9 234.7,447.9C234.8,435.9 244.2,426.7 256.1,426.8Z" style="fill:none;fill-rule:nonzero;stroke:black;stroke-width:10px;stroke-linecap:butt;stroke-linejoin:miter;"/>
        </g>
        <g transform="matrix(0.90129,0,0,1,25.2594,-3)">
            <path d="M286.7,58.1L225.2,58.1C222.4,58.1 220.1,55.8 220.1,53C220.1,50.2 222.4,47.9 225.2,47.9L286.7,47.9C289.5,47.9 291.8,50.2 291.8,53C291.8,55.8 289.5,58.1 286.7,58.1Z" style="fill-rule:nonzero;"/>
        </g>
        <g id="_1" transform="matrix(6.40841,0,0,6.40841,153.487,101.298)">
            <path id="lens_aperture_camera_focus" d="M30.49,12.12C28.735,5.587 22.768,1.011 16.003,1.011C7.775,1.011 1.003,7.782 1.003,16.011C1.003,24.24 7.775,31.011 16.003,31.011C21.36,31.011 26.325,28.141 29,23.5C30.994,20.059 31.531,15.959 30.49,12.12ZM28.56,12.64C28.805,13.552 28.952,14.487 29,15.43L24,18.31L24,5.77C26.232,7.498 27.835,9.912 28.56,12.64ZM10,19.46L10,12.54L16,9.07L22,12.54L22,19.46L16,22.93L10,19.46ZM22,4.46L22,10.21L11.13,4C12.675,3.361 14.328,3.021 16,3C18.091,2.996 20.151,3.504 22,4.48L22,4.46ZM9,5.05L14,7.92L3.13,14.19C3.638,10.427 5.789,7.077 9,5.05ZM3,16.56L8,13.69L8,26.23C5.001,23.895 3.172,20.357 3,16.56ZM10,27.56L10,21.77L20.86,28C17.346,29.438 13.371,29.259 10,27.51L10,27.56ZM23,27L18,24.12L28.88,17.8C28.366,21.579 26.213,24.946 23,27Z" style="fill-rule:nonzero;"/>
        </g>
    </g>
</svg>
