<?xml version="1.0" encoding="UTF-8" standalone="no"?>
<!DOCTYPE svg PUBLIC "-//W3C//DTD SVG 1.1//EN" "http://www.w3.org/Graphics/SVG/1.1/DTD/svg11.dtd">
<svg width="100%" height="100%" viewBox="0 0 512 512" version="1.1" xmlns="http://www.w3.org/2000/svg" xmlns:xlink="http://www.w3.org/1999/xlink" xml:space="preserve" xmlns:serif="http://www.serif.com/" style="fill-rule:evenodd;clip-rule:evenodd;stroke-linecap:round;stroke-linejoin:round;stroke-miterlimit:10;">
    <g>
        <g transform="matrix(0.90129,0,0,1,25.2594,0)">
            <path d="M117.3,91.099L117.2,91L117.2,56C117.2,33 130.6,15.8 151.8,11.5C155.4,10.8 159.1,10.7 162.7,10.7C225,10.7 287.4,10.6 349.7,10.7C376.5,10.7 394.7,28.7 394.7,55.5L394.7,356.203L394.8,356.3L394.8,456.4C394.8,483.1 376.6,501.1 349.8,501.2L162.3,501.2C135.2,501.2 117.3,483.1 117.3,456L117.3,91.099Z" style="fill:none;fill-rule:nonzero;stroke:black;stroke-width:12px;"/>
        </g>
        <g transform="matrix(1,0,0,1,-1,0)">
            <path d="M256.1,426.8C268,426.9 277.2,436.2 277.2,448.2C277.1,460.1 267.7,469.3 255.8,469.3C243.9,469.2 234.7,459.9 234.7,447.9C234.8,435.9 244.2,426.7 256.1,426.8Z" style="fill:none;fill-rule:nonzero;stroke:black;stroke-width:10px;stroke-linecap:butt;stroke-linejoin:miter;"/>
        </g>
        <g transform="matrix(0.90129,0,0,1,25.2594,-3)">
            <path d="M286.7,58.1L225.2,58.1C222.4,58.1 220.1,55.8 220.1,53C220.1,50.2 222.4,47.9 225.2,47.9L286.7,47.9C289.5,47.9 291.8,50.2 291.8,53C291.8,55.8 289.5,58.1 286.7,58.1Z" style="fill-rule:nonzero;"/>
        </g>
        <g id="Icons" transform="matrix(9.94284,0,0,9.94284,100.797,80.4466)">
            <g>
                <path d="M19.241,11.77L17.829,13.182C18.552,13.906 19,14.906 19,16.011C19,17.116 18.552,18.116 17.828,18.839L19.24,20.251C20.327,19.165 21,17.665 21,16.011C21,14.357 20.327,12.857 19.241,11.77Z" style="fill-rule:nonzero;"/>
                <path d="M22.068,8.943L20.657,10.354C22.105,11.802 23,13.802 23,16.011C23,18.22 22.105,20.22 20.657,21.668L22.068,23.079C23.879,21.268 25,18.768 25,16.011C25,13.254 23.879,10.754 22.068,8.943Z" style="fill-rule:nonzero;"/>
                <path d="M14,9.822L14,22.165L9.329,17L8,17L8,15.011L9.329,15.011L14,9.822M16,7L13.991,7L8.5,13.011L6,13.011L6,19L8.5,19L14.005,25L16,25L16,7Z" style="fill-rule:nonzero;"/>
            </g>
        </g>
    </g>
</svg>
